<?xml version="1.0" encoding="utf-8"?>
<!-- Generator: Adobe Illustrator 22.1.0, SVG Export Plug-In . SVG Version: 6.00 Build 0)  -->
<svg version="1.1" id="Capa_1" xmlns="http://www.w3.org/2000/svg" xmlns:xlink="http://www.w3.org/1999/xlink" x="0px" y="0px"
	 viewBox="0 0 1269.7 494.7" style="enable-background:new 0 0 1269.7 494.7;" xml:space="preserve">
<style type="text/css">
	.st0{fill:url(#SVGID_1_);}
	.st1{fill:url(#SVGID_2_);}
	.st2{fill:url(#SVGID_3_);}
	.st3{fill:url(#SVGID_4_);}
	.st4{fill:url(#SVGID_5_);}
	.st5{fill:url(#SVGID_6_);}
	.st6{fill:url(#SVGID_7_);}
	.st7{fill:url(#SVGID_8_);}
	.st8{fill:url(#SVGID_9_);}
	.st9{fill:#1C140F;}
	.st10{fill:url(#SVGID_10_);}
	.st11{fill:url(#SVGID_11_);}
	.st12{fill:url(#SVGID_12_);}
	.st13{fill:#F0B877;}
	.st14{fill:#FECE99;}
	.st15{fill:url(#SVGID_13_);}
	.st16{fill:url(#SVGID_14_);}
	.st17{fill:url(#SVGID_15_);}
	.st18{fill:url(#SVGID_16_);}
	.st19{opacity:0.18;fill:#161616;enable-background:new    ;}
	.st20{fill:#C2C2C2;}
	.st21{fill:#E2E2E2;}
	.st22{fill:#E3E3E3;}
	.st23{fill:#B0B1B1;}
	.st24{fill:#975D42;}
	.st25{fill:#EDEDED;}
	.st26{fill:#777777;}
	.st27{fill:#CBCBCB;}
	.st28{fill:#986945;}
	.st29{fill:#B68563;}
	.st30{fill:#010101;}
	.st31{fill:#FFFFFF;}
	.st32{fill:#8A5E3E;}
	.st33{fill:#B58463;}
	.st34{font-family:'Helvetica';}
	.st35{font-size:2.48px;}
	.st36{fill:#CB3935;}
	.st37{fill:#7A5537;}
	.st38{fill:#BC3431;}
	.st39{opacity:0.15;fill:#010101;enable-background:new    ;}
	.st40{opacity:0.12;fill:#010101;enable-background:new    ;}
	.st41{filter:url(#Adobe_OpacityMaskFilter);}
	.st42{mask:url(#mask-20_1_);fill:#966C47;}
	.st43{filter:url(#Adobe_OpacityMaskFilter_1_);}
	.st44{mask:url(#mask-22_1_);fill:#A62928;}
	.st45{filter:url(#Adobe_OpacityMaskFilter_2_);}
	.st46{opacity:0.1;mask:url(#mask-24_1_);}
	.st47{filter:url(#Adobe_OpacityMaskFilter_3_);}
	.st48{mask:url(#mask-26_1_);fill:#010101;}
	.st49{filter:url(#Adobe_OpacityMaskFilter_4_);}
	.st50{mask:url(#mask-28_1_);fill:#CC3936;}
	.st51{filter:url(#Adobe_OpacityMaskFilter_5_);}
	.st52{opacity:0.1;mask:url(#mask-30_1_);}
	.st53{filter:url(#Adobe_OpacityMaskFilter_6_);}
	.st54{mask:url(#mask-32_1_);fill:#010101;}
	.st55{fill:#AB3130;}
	.st56{fill:#7C2423;}
	.st57{fill:#DA9B5C;}
	.st58{fill:#C79669;}
	.st59{fill:#FEC989;}
	.st60{fill:#484A49;}
	.st61{fill:#E4D030;}
	.st62{fill:#9F9EA1;}
	.st63{fill:#195470;}
	.st64{fill:#CC3938;}
	.st65{fill:#9B2121;}
	.st66{fill:#29282A;}
	.st67{fill:url(#SVGID_17_);}
	.st68{fill:#CC9341;}
	.st69{fill:url(#SVGID_18_);}
	.st70{fill:url(#SVGID_19_);}
	.st71{fill:url(#SVGID_20_);}
	.st72{fill:url(#SVGID_21_);}
	.st73{fill:url(#SVGID_22_);}
	.st74{fill:url(#SVGID_23_);}
	.st75{fill:url(#SVGID_24_);}
	.st76{fill:url(#SVGID_25_);}
	.st77{fill:url(#SVGID_26_);}
	.st78{fill:url(#SVGID_27_);}
	.st79{fill:url(#SVGID_28_);}
	.st80{fill:url(#SVGID_29_);}
	.st81{fill:url(#SVGID_30_);}
	.st82{fill:url(#SVGID_31_);}
	.st83{fill:url(#SVGID_32_);}
	.st84{fill:url(#SVGID_33_);}
	.st85{fill:url(#SVGID_34_);}
	.st86{font-size:3.5802px;}
	.st87{filter:url(#Adobe_OpacityMaskFilter_7_);}
	.st88{mask:url(#mask-20_3_);fill:#966C47;}
	.st89{filter:url(#Adobe_OpacityMaskFilter_8_);}
	.st90{mask:url(#mask-22_3_);fill:#A62928;}
	.st91{filter:url(#Adobe_OpacityMaskFilter_9_);}
	.st92{opacity:0.1;mask:url(#mask-24_3_);}
	.st93{filter:url(#Adobe_OpacityMaskFilter_10_);}
	.st94{mask:url(#mask-26_3_);fill:#010101;}
	.st95{filter:url(#Adobe_OpacityMaskFilter_11_);}
	.st96{mask:url(#mask-28_3_);fill:#CC3936;}
	.st97{filter:url(#Adobe_OpacityMaskFilter_12_);}
	.st98{opacity:0.1;mask:url(#mask-30_3_);}
	.st99{filter:url(#Adobe_OpacityMaskFilter_13_);}
	.st100{mask:url(#mask-32_3_);fill:#010101;}
	.st101{fill:url(#SVGID_35_);}
	.st102{fill:url(#SVGID_36_);}
</style>
<g>
	<g id="detail">
		
			<linearGradient id="SVGID_1_" gradientUnits="userSpaceOnUse" x1="-577.2747" y1="681.5452" x2="-576.5319" y2="682.2024" gradientTransform="matrix(101.12 0 0 149.4 58883.4336 -101632.5625)">
			<stop  offset="0" style="stop-color:#925443"/>
			<stop  offset="7.210000e-02" style="stop-color:#9F624B"/>
			<stop  offset="0.2286" style="stop-color:#B97C59"/>
			<stop  offset="0.3934" style="stop-color:#D09465"/>
			<stop  offset="0.5682" style="stop-color:#E1A76F"/>
			<stop  offset="0.7598" style="stop-color:#EEB475"/>
			<stop  offset="1" style="stop-color:#F3B978"/>
		</linearGradient>
		<path class="st0" d="M481.5,294.6h101.1V145.2H481.5V294.6z"/>
		
			<linearGradient id="SVGID_2_" gradientUnits="userSpaceOnUse" x1="-577.051" y1="681.6346" x2="-577.051" y2="682.14" gradientTransform="matrix(11.26 0 0 149.4 7085.8105 -101632.5703)">
			<stop  offset="0" style="stop-color:#845A39"/>
			<stop  offset="0.2216" style="stop-color:#A06D45"/>
			<stop  offset="0.5298" style="stop-color:#C58554"/>
			<stop  offset="0.7042" style="stop-color:#D5905B"/>
		</linearGradient>
		<path class="st1" d="M593.8,289.1l-11.3,5.4V145.1h11.3V289.1z"/>
		
			<linearGradient id="SVGID_3_" gradientUnits="userSpaceOnUse" x1="-577.051" y1="680.5563" x2="-577.051" y2="682.1501" gradientTransform="matrix(61.7 0 0 56.62 36137.4258 -38277.4219)">
			<stop  offset="0" style="stop-color:#9C663F"/>
			<stop  offset="0.1931" style="stop-color:#BB8557"/>
			<stop  offset="0.447" style="stop-color:#E5B179"/>
			<stop  offset="0.5782" style="stop-color:#FDC789"/>
		</linearGradient>
		<path class="st2" d="M502.5,351.2h61.7v-56.6h-61.7V351.2z"/>
		
			<linearGradient id="SVGID_4_" gradientUnits="userSpaceOnUse" x1="-577.051" y1="680.7352" x2="-577.051" y2="682.0786" gradientTransform="matrix(13.95 0 0 56.63 8621.0645 -38284.2461)">
			<stop  offset="0" style="stop-color:#845A39"/>
			<stop  offset="0.2216" style="stop-color:#A06D45"/>
			<stop  offset="0.5298" style="stop-color:#C58554"/>
			<stop  offset="0.7042" style="stop-color:#D5905B"/>
		</linearGradient>
		<path class="st3" d="M578.2,341.6l-14,9.6v-56.6h14V341.6z"/>
		
			<linearGradient id="SVGID_5_" gradientUnits="userSpaceOnUse" x1="-577.051" y1="681.6547" x2="-577.051" y2="682.2115" gradientTransform="matrix(17.63 0 0 138.1 10589.5029 -93934.5391)">
			<stop  offset="0" style="stop-color:#925443"/>
			<stop  offset="0.1622" style="stop-color:#B67A58"/>
			<stop  offset="0.3336" style="stop-color:#DEA46D"/>
			<stop  offset="0.4222" style="stop-color:#F3B978"/>
		</linearGradient>
		<path class="st4" d="M407.3,276.1l17.6,7.1V145.1h-17.6V276.1z"/>
		
			<linearGradient id="SVGID_6_" gradientUnits="userSpaceOnUse" x1="-576.8559" y1="681.4024" x2="-577.3094" y2="682.1942" gradientTransform="matrix(85.2 0 0 138.1 49632.2617 -93934.5391)">
			<stop  offset="0" style="stop-color:#713D2F"/>
			<stop  offset="7.950000e-02" style="stop-color:#804C37"/>
			<stop  offset="0.2347" style="stop-color:#9C6745"/>
			<stop  offset="0.3983" style="stop-color:#B47D50"/>
			<stop  offset="0.5717" style="stop-color:#C68E58"/>
			<stop  offset="0.7617" style="stop-color:#D19A5D"/>
			<stop  offset="1" style="stop-color:#D69F60"/>
		</linearGradient>
		<path class="st5" d="M424.9,283.2h85.2V145.1h-85.2V283.2z"/>
		
			<linearGradient id="SVGID_7_" gradientUnits="userSpaceOnUse" x1="-576.4515" y1="681.0066" x2="-577.3485" y2="682.1085" gradientTransform="matrix(85.2 0 0 77.54 49595.5273 -52678.7031)">
			<stop  offset="0" style="stop-color:#713D2F"/>
			<stop  offset="1.560000e-02" style="stop-color:#733F30"/>
			<stop  offset="0.2616" style="stop-color:#996444"/>
			<stop  offset="0.4831" style="stop-color:#B88152"/>
			<stop  offset="0.6705" style="stop-color:#CD965B"/>
			<stop  offset="0.8011" style="stop-color:#D69F60"/>
		</linearGradient>
		<path class="st6" d="M388.2,222.4h85.2v-77.5h-85.2V222.4z"/>
		
			<linearGradient id="SVGID_8_" gradientUnits="userSpaceOnUse" x1="-577.3269" y1="680.8307" x2="-576.9174" y2="682.1688" gradientTransform="matrix(12.23 0 0 77.3 7439.3979 -52514.9609)">
			<stop  offset="0" style="stop-color:#925443"/>
			<stop  offset="0.1853" style="stop-color:#B67A58"/>
			<stop  offset="0.3812" style="stop-color:#DEA46D"/>
			<stop  offset="0.4824" style="stop-color:#F3B978"/>
		</linearGradient>
		<path class="st7" d="M375.9,220.7l12.2,1.7v-77.3l-12.2,4.2V220.7z"/>
		
			<linearGradient id="SVGID_9_" gradientUnits="userSpaceOnUse" x1="-577.1346" y1="681.0353" x2="-576.9869" y2="682.2862" gradientTransform="matrix(141.52 0 0 77.54 82224.8125 -52678.7031)">
			<stop  offset="0" style="stop-color:#9D5C48"/>
			<stop  offset="8.680000e-02" style="stop-color:#AC6C51"/>
			<stop  offset="0.2408" style="stop-color:#C48660"/>
			<stop  offset="0.403" style="stop-color:#D99E6C"/>
			<stop  offset="0.5751" style="stop-color:#EAB076"/>
			<stop  offset="0.7636" style="stop-color:#F7BD7D"/>
			<stop  offset="1" style="stop-color:#FDC27F"/>
		</linearGradient>
		<path class="st8" d="M489.8,222.4h141.5v-77.5H489.8V222.4z"/>
		<path class="st9" d="M407,194.1h42.1v-14.3h-21.1v-2.2h-9.3v2.2H407V194.1z M409.5,182.3h4.7v7.1h2.4v-7.1h2.2v9.4h-9.3
			L409.5,182.3L409.5,182.3z M421,191.7v-11.8h4.7v2.5h4.6v9.4H421L421,191.7z M425.6,189.4h2.4v-4.9h-2.5L425.6,189.4L425.6,189.4z
			 M432.7,191.7v-9.4h4.6v7.1h2.4v-7.1h2.2v7.1h2.4v-6.9h2.4v9.4l-14.2-0.2H432.7z"/>
		
			<linearGradient id="SVGID_10_" gradientUnits="userSpaceOnUse" x1="-576.6756" y1="680.9924" x2="-577.2807" y2="682.2021" gradientTransform="matrix(86.68 0 0 77.54 50500.9961 -52701.582)">
			<stop  offset="0" style="stop-color:#713D2F"/>
			<stop  offset="1.560000e-02" style="stop-color:#733F30"/>
			<stop  offset="0.2616" style="stop-color:#996444"/>
			<stop  offset="0.4831" style="stop-color:#B88152"/>
			<stop  offset="0.6705" style="stop-color:#CD965B"/>
			<stop  offset="0.8011" style="stop-color:#D69F60"/>
		</linearGradient>
		<path class="st10" d="M438.9,199.5h86.7V122h-86.7V199.5z"/>
		
			<linearGradient id="SVGID_11_" gradientUnits="userSpaceOnUse" x1="-577.1231" y1="680.8344" x2="-577.0237" y2="682.0874" gradientTransform="matrix(16.65 0 0 77.3 10038.4443 -52537.8516)">
			<stop  offset="0" style="stop-color:#925443"/>
			<stop  offset="0.1853" style="stop-color:#B67A58"/>
			<stop  offset="0.3812" style="stop-color:#DEA46D"/>
			<stop  offset="0.4824" style="stop-color:#F3B978"/>
		</linearGradient>
		<path class="st11" d="M422.2,199.5h16.6v-77.3l-16.6,5.9V199.5z"/>
		<path class="st9" d="M461.1,171.7h42.1v-14.3h-21.1v-2.2h-9.3v2.2h-11.8L461.1,171.7L461.1,171.7z M463.6,159.9h4.7v7.1h2.4v-7.1
			h2.2v9.4h-9.3L463.6,159.9L463.6,159.9z M475.3,169.3v-11.8h4.7v2.5h4.7v9.4H475.3z M479.7,167h2.4v-4.9h-2.4L479.7,167L479.7,167
			z M486.8,169.3v-9.4h4.7v7.1h2.2v-7.1h2.2v6.9h2.4v-6.9h2.5v9.4H487H486.8z"/>
		
			<linearGradient id="SVGID_12_" gradientUnits="userSpaceOnUse" x1="-577.1928" y1="681.1284" x2="-576.9376" y2="682.2352" gradientTransform="matrix(61.7 0 0 56.6 36175.125 -38429.4414)">
			<stop  offset="0" style="stop-color:#9D5C48"/>
			<stop  offset="8.680000e-02" style="stop-color:#AC6C51"/>
			<stop  offset="0.2408" style="stop-color:#C48660"/>
			<stop  offset="0.403" style="stop-color:#D99E6C"/>
			<stop  offset="0.5751" style="stop-color:#EAB076"/>
			<stop  offset="0.7636" style="stop-color:#F7BD7D"/>
			<stop  offset="1" style="stop-color:#FDC27F"/>
		</linearGradient>
		<path class="st12" d="M540.2,185.5h61.7v-56.6h-61.7V185.5z"/>
		<path class="st13" d="M463.8,157.2h102.6v-51.7H463.8L463.8,157.2z"/>
		<path class="st14" d="M561,161.9h-91.6l-5.6-4.7h102.8L561,161.9z"/>
		
			<linearGradient id="SVGID_13_" gradientUnits="userSpaceOnUse" x1="-577.051" y1="680.8268" x2="-577.051" y2="682.1592" gradientTransform="matrix(9.8 0 0 57.1 6261.9312 -38770.082)">
			<stop  offset="0" style="stop-color:#845A39"/>
			<stop  offset="0.2216" style="stop-color:#A06D45"/>
			<stop  offset="0.5298" style="stop-color:#C58554"/>
			<stop  offset="0.7042" style="stop-color:#D5905B"/>
		</linearGradient>
		<path class="st15" d="M611.7,186l-9.8-0.5v-56.6l9.8,3.4V186z"/>
		
			<linearGradient id="SVGID_14_" gradientUnits="userSpaceOnUse" x1="-577.051" y1="680.9012" x2="-577.051" y2="682.191" gradientTransform="matrix(16.9 0 0 77.3 10391.918 -52514.9609)">
			<stop  offset="0" style="stop-color:#845A39"/>
			<stop  offset="0.2216" style="stop-color:#A06D45"/>
			<stop  offset="0.5298" style="stop-color:#C58554"/>
			<stop  offset="0.7042" style="stop-color:#D5905B"/>
		</linearGradient>
		<path class="st16" d="M648.2,220l-16.9,2.4v-77.3l16.9,4.9V220z"/>
		
			<linearGradient id="SVGID_15_" gradientUnits="userSpaceOnUse" x1="-577.051" y1="680.5208" x2="-577.051" y2="682.1263" gradientTransform="matrix(50.93 0 0 42.33 29858.1934 -28553.5352)">
			<stop  offset="0" style="stop-color:#7E4435"/>
			<stop  offset="9.729999e-02" style="stop-color:#864C39"/>
			<stop  offset="0.2559" style="stop-color:#9C6244"/>
			<stop  offset="0.4551" style="stop-color:#C48A58"/>
			<stop  offset="0.5572" style="stop-color:#E1A766"/>
		</linearGradient>
		<path class="st17" d="M443.5,325.8h50.9v-42.3h-50.9V325.8z"/>
		
			<linearGradient id="SVGID_16_" gradientUnits="userSpaceOnUse" x1="-575.7902" y1="680.9505" x2="-577.8391" y2="682.2384" gradientTransform="matrix(9.3 0 0 42.58 5805.4434 -28724.0957)">
			<stop  offset="0" style="stop-color:#925443"/>
			<stop  offset="0.1187" style="stop-color:#A76A4F"/>
			<stop  offset="0.3724" style="stop-color:#EAB073"/>
			<stop  offset="0.3928" style="stop-color:#F3B978"/>
		</linearGradient>
		<path class="st18" d="M443.5,325.8l-9.3-6.2v-36.4h9.3V325.8z"/>
		<path class="st14" d="M611.7,186h-57.1l-14.4-0.2h61.7L611.7,186z"/>
		<path class="st19" d="M531.9,222.4h-21.6v53.9l21.6-18.2L531.9,222.4z M516.2,294.6h-13.7v16l13.7-11.6L516.2,294.6z"/>
		<path class="st14" d="M438.9,199.3l-16.7,0.3h103.3L438.9,199.3z M550,221.7l-60.2,0.7h141.3L550,221.7z M431.5,222.2l-43.3,0.2
			h85L431.5,222.2z M468.5,283l-43.6,0.2h85.5L468.5,283z M539.5,294l-45,0.5h88.1L539.5,294z"/>
		<path class="st20" d="M511.6,157.2h7.4v-14.8h-7.4L511.6,157.2z"/>
		<path class="st21" d="M529.2,351.2h7.3v-14.8h-7.3L529.2,351.2z"/>
		<path class="st20" d="M484.6,199.3h-6.4v-14.5h6.4V199.3z"/>
		<path class="st22" d="M518.4,161.9h-6.4l-0.5-4.7h7.4L518.4,161.9z"/>
		<path class="st22" d="M564.5,159.2H466l1.2,0.7h96L564.5,159.2z"/>
		<path class="st23" d="M606.3,185.8v-12.3h1.9v12.3H606.3z M641.8,221v-12.1l-2.4,0.3v12.1L641.8,221z M589.9,290.9v-11.6l-2.5,0.5
			v12.3L589.9,290.9z M573,345v-11.6l-2.2,0.7v12.3L573,345z"/>
		<path class="st24" d="M459.9,292.6h-5.1c-0.5,0-1-0.5-1-1v-5.2c0-0.5,0.5-1,1-1h5.1c0.5,0,1,0.5,1,1v5.2
			C461.1,292.1,460.7,292.6,459.9,292.6z M458.7,292.1c0,0,0.2-0.5,0.2-0.7s-0.3-0.2-0.3-0.2c-0.3,0-0.3,0.2-0.3,0.2
			c0,0.2,0.2,0.7,0.2,0.7L458.7,292.1z M459.7,288.6c0,0.2-0.2,0.5-0.5,0.5c-0.2,0-0.5-0.2-0.5-0.5c0,0.2-0.2,0.5-0.5,0.5
			c-0.2,0-0.2,0-0.5-0.2v-2.2c0-0.5-0.2-0.7-0.7-0.7c-0.5,0-0.7,0.3-0.7,0.8h0.2c0-0.2,0.2-0.5,0.5-0.5c0.2,0,0.5,0.3,0.5,0.5v2.2
			c0,0-0.2,0.3-0.5,0.3c-0.3,0-0.5-0.2-0.5-0.5c0,0.3-0.2,0.5-0.5,0.5c-0.3,0-0.5-0.2-0.5-0.5c0,1.3,1,2.2,2,2.2v0.2h0.2V291
			c1-0.2,2-1,2-2.2V288.6z M459.4,290.4c-0.2,0-0.2,0.2-0.2,0.2c0,0.2,0.2,0.7,0.2,0.7s0.2-0.5,0.2-0.8c0-0.3-0.2-0.3-0.2-0.3V290.4
			z M468,292.6h-5.1c-0.4,0-0.9-0.5-0.9-1v-5.2c0-0.5,0.5-1,1-1h5.2c0.5,0,1,0.5,1,1v5.1c0.3,0.5-0.2,1-0.9,1L468,292.6z
			 M464.3,291.3l0.7-1h-0.4v-3.2H464v3.2h-0.2l0.8,0.9L464.3,291.3z M467.3,286.4h-3.2v0.8h3.2V286.4z M467.3,290.3v-3.2h-0.7v3.2
			H466l0.8,0.9l0.7-1h-0.2V290.3z M451.8,292.5h-5.2c-0.5,0-1-0.5-1-1v-5.2c0-0.5,0.5-1,1-1h5.1c0.4,0,0.9,0.5,0.9,1v5.1
			c0.2,0.5-0.3,0.9-1,0.9L451.8,292.5z M449.1,290.8l-0.2-0.3l0.2,0.7v-0.5V290.8z M447.9,289.1v0.7V289V289.1z M447.9,291.5h1
			l-0.5-1.3l-0.2,0.4l-0.2-1l-0.2-0.7l0.2,2.4V291.5z M450.4,288.8c0-0.5-0.2-1-0.7-1v-1.7l0.7-0.5h-2.2l0.7,0.5v1.7
			c-0.5,0-0.8,0.5-0.8,1v0.2l0.2,0.2l0.2,0.7l0.2-0.3l0.7,1.2h0.7v-2.2L450.4,288.8z M538.7,307h-6.3c-0.7,0-1.2-0.5-1.2-1.3v-6.4
			c0-0.8,0.5-1.3,1.2-1.3h6.4c0.8,0,1.3,0.5,1.3,1.2v6.4c0.3,0.5-0.5,1.2-1.2,1.2L538.7,307z M537,306.5c0,0,0.2-0.8,0.2-1
			c0-0.3-0.2-0.3-0.2-0.3c-0.2,0-0.2,0.2-0.2,0.2c0,0.2,0.2,0.9,0.2,0.9V306.5z M538.3,302c0,0.2-0.2,0.5-0.7,0.5
			c-0.3,0-0.8-0.3-0.8-0.5c0,0.2-0.3,0.5-0.8,0.5c-0.3,0-0.5,0-0.5-0.3v-2.7c0-0.5-0.5-1-1-1s-1,0.5-1,1h0.2c0-0.3,0.2-0.8,0.7-0.8
			s0.7,0.2,0.7,0.7v2.8c0,0.3-0.3,0.3-0.5,0.3c-0.3,0-0.8-0.3-0.8-0.5c0,0.2-0.3,0.5-0.7,0.5c-0.3,0-0.8-0.3-0.8-0.5
			c0,1.5,1.2,2.7,2.4,2.7v0.2h0.2v-0.2c1.7,0,2.9-1.2,2.9-2.7L538.3,302z M538,303.9c-0.2,0-0.2,0.2-0.2,0.2c0,0.2,0.2,0.9,0.2,0.9
			s0.2-0.8,0.2-1c0,0,0-0.3-0.2-0.3V303.9z M548.8,306.8h-6.3c-0.8,0-1.2-0.5-1.2-1.3v-6.4c0-0.8,0.5-1.3,1.2-1.3h6.3
			c0.7,0,1.2,0.5,1.2,1.2v6.4c0,0.5-0.5,1.2-1.3,1.2L548.8,306.8z M544.1,305.3l1-1.3h-0.7v-3.9h-0.7v4h-0.4l1,1.2H544.1z
			 M547.6,299.1h-3.9v0.8h4L547.6,299.1L547.6,299.1z M547.6,304v-3.9h-0.7v4h-0.5l0.9,1.2l1-1.3h-0.8H547.6z M558.8,306.7h-6.4
			c-0.7,0-1.2-0.5-1.2-1.3V299c0-0.7,0.5-1.2,1.2-1.2h6.4c0.7,0,1.2,0.5,1.2,1.2v6.4c0,0.5-0.5,1.2-1.3,1.2L558.8,306.7z
			 M555.6,300.5v-1.7h-1.5v1l-1.2,1.4v2.5c0,0.2,0.3,0.2,0.3,0.2c0.3,0,0.3-0.2,0.3-0.2v-1.5c0,0-0.2,0-0.2-0.3v-0.2
			c0-0.3,0-0.3,0.3-0.3l1.3-1l-1.2,1c-0.2,0-0.2,0.3,0,0.5c0,0.3,0.3,0.3,0.5,0l1.3-1c0,0.3,0.5,0,0.5-0.5L555.6,300.5z
			 M555.6,301.7l-1.5,1v1.5l1.5-1v-1.4L555.6,301.7z M553.9,304.4l1.7,1l1.7-1l-1.7-1L553.9,304.4L553.9,304.4z M557.4,304.1v-1.4
			l-1.5-1v1.5l1.5,1V304.1z M558.6,301.4C558.6,301.4,558.3,301.1,558.6,301.4l-1.5-1.8v-0.7h-1.2v2c0,0.5,0.5,0.7,0.5,0.7l1.2,0.9
			h0.5V302l-1.2-1l1.2,1l0.2,0.2v0.2l-0.2,0.3v1.5c0,0.3,0.2,0.3,0.2,0.3l0.2-0.2v-2.7V301.4z M528.7,306.5h-6.4
			c-0.7,0-1.2-0.5-1.2-1.3v-6.4c0-0.8,0.5-1.3,1.3-1.3h6.4c0.8,0,1.3,0.5,1.3,1.2v6.5c0.3,0.5-0.5,1.2-1.2,1.2L528.7,306.5z
			 M525.5,304.5l-0.3-0.5l0.2,1v-0.5H525.5z M524,302l-0.3,0.7l0.2-0.5v-0.3L524,302z M524,305.2h1.2l-0.5-1.5l-0.3,0.7l-0.3-1
			l-0.3-0.7v2.5L524,305.2z M526.9,302c0-0.8-0.5-1.3-1-1.3v-1.9l1-0.5h-2.7l1,0.5v2c-0.5,0.3-1,0.7-1,1.2v0.5l0.2,0.5l0.2,1
			l0.2-0.5l0.7,1.7h0.9V302h0.2H526.9z M486.5,118h-6.6c-0.8,0-1.5-0.8-1.5-1.5v-6.6c0-0.8,0.7-1.5,1.4-1.5h6.6
			c0.7,0,1.5,0.7,1.5,1.5v6.6c-0.1,0.8-0.7,1.4-1.5,1.4L486.5,118z M484.8,117.5c0,0,0.5-0.8,0.5-1s-0.3-0.5-0.5-0.5
			c-0.3,0-0.5,0.2-0.5,0.5C484.3,116.7,484.8,117.5,484.8,117.5z M486,112.8c0,0.2-0.2,0.5-0.7,0.5s-0.8-0.3-0.8-0.5
			c0,0.2-0.3,0.5-0.8,0.5c-0.3,0-0.5,0-0.5-0.3v-2.9c0-0.5-0.5-1-1-1s-1,0.5-1,1h0.2c0-0.2,0.2-0.7,0.7-0.7s0.7,0.2,0.7,0.7v3
			c-0.3,0.2-0.3,0.2-0.5,0.2c-0.5,0-0.7-0.3-0.7-0.5c0,0.2-0.3,0.5-0.7,0.5c-0.5,0-0.8-0.3-0.8-0.5c0,1.5,1.2,2.7,2.7,2.7v0.3h0.2
			v-0.2c1.5,0,2.7-1.2,2.7-2.7L486,112.8z M485.8,115c-0.3,0-0.5,0.2-0.5,0.5c0,0.2,0.5,1,0.5,1s0.5-0.7,0.5-1
			C486,115.3,486,115,485.8,115z M497,117.9h-6.6c-0.8,0-1.5-0.8-1.5-1.5v-6.6c0-0.8,0.7-1.5,1.5-1.5h6.6c0.8,0.1,1.4,0.7,1.4,1.5
			v6.6c0,0.7-0.7,1.4-1.5,1.4L497,117.9z M492.1,116.4l0.9-1.2h-0.5V111h-1v4H491L492.1,116.4L492.1,116.4z M495.7,109.7h-4.2v0.8
			h4.1L495.7,109.7L495.7,109.7z M495.7,114.8v-4.2h-1v4.6h-0.5l0.9,1.2l1-1.2h-0.5L495.7,114.8z M475.8,117.8h-6.6
			c-0.8,0-1.5-0.8-1.5-1.5v-6.6c0-0.8,0.7-1.5,1.5-1.5h6.6c0.7,0,1.5,0.7,1.5,1.4v6.6c-0.3,0.7-0.8,1.5-1.5,1.5V117.8z M472.1,115.6
			l-0.3-0.5l0.2,1v-0.5H472.1z M470.6,113.1l-0.3,0.7l0.2-0.5V113L470.6,113.1z M470.6,116.5h1.4l-0.5-1.5l-0.2,0.7l-0.3-1.2l-0.3-1
			l-0.2,2.9L470.6,116.5z M473.7,113.1c0-0.8-0.5-1.3-1-1.5v-2.1l0.9-0.5h-2.7l1,0.5v2.7c-0.8,0.2-1,0.7-1,1.5v0.5l0.2,0.5l0.3,1
			l0.3-0.5l0.7,1.7h1.2v-3.2L473.7,113.1z M408.4,156.1h-6c-0.8,0-1.3-0.5-1.3-1.3v-6.1c0-0.8,0.5-1.3,1.2-1.3h6.1
			c0.7,0,1.2,0.5,1.2,1.2v6.6c0,0.5-0.5,1.2-1.3,1.2L408.4,156.1z M406.7,155.6c0,0,0.2-0.8,0.2-1s-0.3-0.3-0.3-0.3
			c-0.3,0-0.3,0.3-0.3,0.3l0.2,1H406.7z M407.9,151.1c0,0.3-0.3,0.5-0.7,0.5c-0.3,0-0.8-0.2-0.8-0.5c0,0.3-0.3,0.5-0.8,0.5
			c-0.3,0-0.5,0-0.5-0.2v-2.7c0-0.5-0.5-1-1-1s-1,0.5-1,1h0.2c0-0.3,0.3-0.8,0.7-0.8c0.3,0,0.8,0.2,0.8,0.7v2.7
			c0,0.2-0.2,0.2-0.5,0.2c-0.2,0-0.7-0.3-0.7-0.5c0,0.2-0.2,0.5-0.7,0.5c-0.2,0-0.7-0.3-0.7-0.5c0,1.5,1.2,2.5,2.5,2.7v0.3h0.3v-0.3
			C406.7,153.7,408,152.5,407.9,151.1L407.9,151.1z M407.6,153.1c-0.2,0-0.2,0.2-0.2,0.2c0,0.2,0.2,0.9,0.2,0.9s0.2-0.7,0.2-1
			c0,0,0-0.3-0.3-0.3L407.6,153.1z M418.4,156h-6c-0.8,0-1.2-0.5-1.2-1.3v-6.1c0-0.8,0.4-1.2,1.2-1.2h6.1c0.7,0,1.2,0.5,1.2,1.2v6.6
			c0,0.5-0.5,1.2-1.3,1.2V156z M413.5,154.5l1-1.2H414v-4h-0.7v3.9h-0.5L413.5,154.5L413.5,154.5z M417.1,148.3h-3.7v0.8h3.9v-0.7
			L417.1,148.3z M417.1,153.2v-4h-0.7v4h-0.5l1,1.2l0.9-1.2H417.1z M398.4,156.2h-6c-0.8,0-1.3-0.5-1.3-1.3v-6.1
			c0-0.8,0.5-1.3,1.2-1.3h6.1c0.7,0,1.2,0.5,1.2,1.2v6.5c0.2,0.5-0.5,1.2-1.2,1.2V156.2z M395.2,154.3l-0.3-0.5l0.2,1L395.2,154.3
			L395.2,154.3z M393.7,151.8l-0.3,0.7l0.3-0.5V151.8L393.7,151.8z M393.7,155h1.2l-0.5-1.5l-0.2,0.7l-0.2-1l-0.2-0.8v2.8L393.7,155
			z M396.6,151.8c0-0.8-0.5-1.3-1-1.3v-2l1-0.5h-2.7l0.9,0.5v2c-0.5,0.2-1,0.7-1,1.2v0.5l0.2,0.4l0.3,1l0.3-0.5l0.7,1.7h1v-3.2h0.2
			L396.6,151.8z"/>
		<path class="st25" d="M562.5,154c0,0.5-0.5,1-1,1H550c-0.5,0-1-0.5-1-1v-4.2c0-0.5,0.5-1,1-1h11.5c0.5,0,1,0.5,1,1V154L562.5,154z
			"/>
		<path class="st26" d="M550.3,154.5h11.3V154h-11.3V154.5z M550.3,153L550.3,153l0.1-3.5h-0.1V153z M551,153L551,153l0.1-3.5H551
			V153z M551.5,153L551.5,153l0.1-3.5h-0.1V153z M553.7,153L553.7,153l0.1-3.5h-0.1V153z M555.6,153L555.6,153l0.1-3.5h-0.1V153z
			 M554.2,153L554.2,153l0.1-3.5h-0.1V153z M560,153L560,153l0.1-3.5H560V153z M552,153h0.2v-3.5H552V153z M552.9,153h0.3v-3.5H553
			L552.9,153z M554.7,153h0.2v-3.5h-0.2V153z M558.1,153h0.2v-3.5h-0.2V153z M556.6,153h0.2v-3.5h-0.2V153z M559.6,153h0.2v-3.5
			h-0.2V153z M552.5,153L552.5,153l0.1-3.5h-0.1V153z M557.4,153L557.4,153l0.1-3.5h-0.1V153z M560.8,153L560.8,153l0.1-3.5h-0.1
			V153z M561,153L561,153l0.1-3.5H561V153z M556.1,153L556.1,153l0.1-3.5h-0.1V153z M558.8,153L558.8,153l0.1-3.5h-0.1V153z
			 M561.5,153L561.5,153l0.1-3.5h-0.1V153z M559.1,153L559.1,153l0.1-3.5h-0.1V153z M558.6,153L558.6,153l0.1-3.5h-0.1V153z"/>
		<path class="st25" d="M442.3,277.6c0,0.5-0.5,1-1,1h-10.5c-0.5,0-1-0.5-1-1v-3.7c0-0.5,0.5-1,1-1h10.5c0.5,0,1,0.5,1,1V277.6
			L442.3,277.6z"/>
		<path class="st26" d="M431.3,278.1h10v-0.2h-10V278.1z M431.3,276.6L431.3,276.6l0.1-3.2h-0.1V276.6z M431.8,276.6L431.8,276.6
			l0.1-3.2h-0.1V276.6z M432.2,276.6L432.2,276.6l0.1-3.2h-0.1V276.6z M434.2,276.6L434.2,276.6l0.1-3.2h-0.1V276.6z M436.2,276.6
			L436.2,276.6l0.1-3.2h-0.1V276.6z M434.9,276.6L434.9,276.6l0.1-3.2h-0.1V276.6z M440.1,276.6L440.1,276.6l0.1-3.2h-0.1V276.6z
			 M432.7,276.6h0.2v-3.2h-0.2V276.6z M433.7,276.6h0.2v-3.2h-0.2V276.6z M435.2,276.6h0.2v-3.2h-0.2V276.6z M438.1,276.6h0.2v-3.2
			h-0.2V276.6z M436.9,276.6h0.2v-3.2H437L436.9,276.6z M439.6,276.6h0.2v-3.2h-0.2L439.6,276.6z M433.2,276.6L433.2,276.6l0.1-3.2
			h-0.1V276.6z M437.6,276.6L437.6,276.6l0.1-3.2h-0.1V276.6z M440.6,276.6L440.6,276.6l0.1-3.2h-0.1V276.6z M441.1,276.6
			L441.1,276.6l0.1-3.2h-0.1V276.6z M436.4,276.6L436.4,276.6l0.1-3.2h-0.1V276.6z M439.1,276.6L439.1,276.6l0.1-3.2h-0.1V276.6z
			 M441.3,276.6L441.3,276.6l0.1-3.2h-0.1V276.6z M439.3,276.6L439.3,276.6l0.1-3.2h-0.1V276.6z M438.6,276.6L438.6,276.6l0.1-3.2
			h-0.1V276.6z"/>
		<path class="st27" d="M383,207.4h-2.7v14l2.7,0.2V207.4z M416.6,264.8l-2.7-0.8v14.8l2.7,1V264.8z"/>
		<path class="st9" d="M526,264h43.3v-14.8h-21.8v-2.5H538v2.5h-12L526,264L526,264z M528.5,252h4.9v7.3h2.4v-7.4h2.4v9.6h-9.6v-9.6
			h-0.2L528.5,252z M540.5,261.8v-12.3h4.7v2.4h4.9v9.8h-9.6V261.8z M545.1,259.3h2.4v-4.9h-2.4V259.3z M552.5,261.7v-9.6h4.9v7.4
			h2.4v-7.4h2.4v7.1h2.4v-7.1h2.4v9.6L552.5,261.7L552.5,261.7z M446.2,255.3h43.3v-14.8h-21.8v-2.4h-9.5v2.4h-12L446.2,255.3
			L446.2,255.3z M448.7,243.2h4.9v7.4h2.5v-7.4h2.5v9.6h-9.5v-9.6h-0.2H448.7z M460.7,252.8v-12.3h4.7v2.4h4.9v9.8h-9.5L460.7,252.8
			z M465.6,250.6h2.5v-5h-2.4v4.9L465.6,250.6z M472.7,252.8v-9.6h4.9v7.4h2.5v-7.4h2.5v7.1h2.5v-7.1h2.5v9.6h-14.7H472.7z
			 M566,168.1h21.8v-7.4h-10.7v-1.3h-4.9v1.2h-6.1v7.6L566,168.1z M567.3,162.2h2.5v3.6h1.3v-3.7h1.2v5h-4.9L567.3,162.2
			L567.3,162.2z M573.2,166.8v-6.2h2.5v1.2h2.5v4.9h-4.9L573.2,166.8z M575.7,165.5h1.3v-2.4h-1.2v2.4H575.7z M579.4,166.7v-5h2.5
			v3.7h1.3v-3.7h1.2v3.7h1.2v-3.7h1.2v4.9h-7.3L579.4,166.7z M555.9,207h41.6v-14h-20.8v-2.2h-9.3v2.4h-11.5v14.1L555.9,207z
			 M558.4,195.4h4.7v7.1h2.2v-7.2h2.3v9.9h-9.3v-9.4h0.3L558.4,195.4z M569.9,204.7v-11.5h4.7v2.2h4.7v9.4L570,205L569.9,204.7z
			 M574.3,202.2h2.5v-4.7h-2.4L574.3,202.2L574.3,202.2z M581.4,204.6v-9.4h4.7v7h2.2v-6.9h2.2v6.9h2.3v-6.9h2.2v9.9h-13.5
			L581.4,204.6z M495.7,141.9h41.6v-14h-20.8v-2.2h-9.3v2.5h-11.7v14.1L495.7,141.9z M498.2,130.3h4.7v6.9h2.2v-7.1h2.2v9.4h-9
			L498.2,130.3L498.2,130.3z M509.7,139.6v-11.4h4.7v2.2h4.7v9.8h-9.3L509.7,139.6z M514.2,137.1h2.5v-4.7h-2.5v4.8V137.1z
			 M521.3,139.5v-9.3h4.7v7h2.2v-6.9h2.2v6.9h2.2v-6.9h2.2v9.9h-13.5L521.3,139.5z M522.8,330.8h35.7v-12h-18v-2h-8v2h-9.8v12.4
			L522.8,330.8z M524.8,320.9h3.9v6h1.9V321h2v8h-7.9v-7.8L524.8,320.9z M534.6,328.7v-10h3.9v2h3.9v8.5h-7.9L534.6,328.7z
			 M538.5,326.8h1.9v-4.2h-1.9V326.8z M544.6,328.7v-7.8h3.9v5.9h2v-5.9h1.9v5.9h2v-5.9h1.9v7.9h-11.8L544.6,328.7z M456.7,313.2
			h25.7v-8.6h-13v-1.5h-5.7v2h-7.1v8.6L456.7,313.2z M458.2,306.1h2.9v5h1.5v-4.4h1.5v5.7h-5.6v-5.7h-0.2L458.2,306.1z M465.3,311.8
			v-7.1h2.9v1.5h3v6h-5.9V311.8z M468,310.4h1.4v-3H468V310.4z M472.4,311.9v-5.7h2.9v5h1.5v-4.4h1.5v4.2h1.5v-4.2h1.5v5.7h-8.8
			L472.4,311.9z"/>
		<path class="st28" d="M171.2,261.9c-26.5-2.7-31.2-35.6-30.5-36.8c20.9-27.4,57.5-20.6,66.9-1.4c0,0,4.7,10.4-6.6,15.1
			C196.6,240.4,194.2,262.7,171.2,261.9L171.2,261.9z"/>
		<path class="st29" d="M193.9,239.8c0.6-1,0.4-2.5-0.6-3.1c-1-0.6-2.2-0.2-2.8,0.8c-0.6,1-0.4,2.5,0.6,3.1
			C192.1,241.2,193.3,240.8,193.9,239.8"/>
		<path class="st30" d="M191.9,240c0.6,0.4,1.6,0.2,2-0.6c0.4-0.8,0.2-1.8-0.4-2.2c-0.6-0.4-1.6-0.2-2,0.6
			C191.1,238.7,191.3,239.7,191.9,240"/>
		<path class="st31" d="M192.9,239c0.2,0.2,0.7,0,0.7-0.2c0.2-0.2,0-0.6-0.2-0.8c-0.2-0.2-0.6,0-0.6,0.2
			C192.6,238.6,192.8,238.8,192.9,239"/>
		<path class="st32" d="M167.8,266.8l5-5.3c-0.3-2-1.6-3.7-3.4-4.5c-2.4-1.2-4-0.4-5.8,1C163.7,258.2,164.1,264,167.8,266.8"/>
		<path class="st28" d="M171.4,260.4l0.8,0.8l-4.2,4.5l-2-4.9C167,260.4,170.1,259.6,171.4,260.4"/>
		<path class="st32" d="M203.2,236.1c-5.4-1.2-5.8-2-4.6-5.7c0.8-2.5,10.5-7.6,9.6-4.1C208.2,226.3,205.2,231.6,203.2,236.1"/>
		<path class="st30" d="M197.9,232.7c-0.2-2.7,5.4-7,9.8-6.3h0.4c3.9,2.9,3.3,9.4-1.2,11C202.2,239,198,235.5,197.9,232.7"/>
		<path class="st32" d="M192.9,217.5c0.6-0.4,5-3.3,8-2.5c-1-1-3-2.2-3-2.2s-1.6-0.2-3.2,1.4C193.3,215.3,192.9,217.5,192.9,217.5
			L192.9,217.5z"/>
		<path class="st33" d="M164.8,214.1l-2.2,0.2c-0.8-0.2-13.3-2.9-18.7-18.4c-1.8-5.1-2.2-9.2-1.6-12c0.2-1,0.6-1.8,1-2.7
			c2-4.1,26.5-9.8,22.3-9.2c-14.7,2.5,14.3-15.5,23.3-8.6c27.5,21.2-6.6,57.6-17.3,37.2"/>
		<text transform="matrix(1 0 0 -1 157.009 187.3603)" class="st34 st35">B58463</text>
		<path class="st36" d="M141,183.6c0,0,51.2,8.4,57.9,4.3c0,0-2.4,14.7-11.1,20.2c0,0-28.3,1.8-31.5,10.2
			C156,218.6,143.2,213.5,141,183.6L141,183.6z"/>
		<path class="st28" d="M142.5,183.4c-0.8-7.1-0.6-17,30.7-18.8c0,0,2.2-1.2,1.6-4.5c-0.6-3.3,22.1-1.2,14.1,14.3
			C179.8,192.6,141,185.9,142.5,183.4L142.5,183.4z"/>
		<path class="st37" d="M180.2,154.2c-1-0.6-2.4,1.6-3.8,3.9c-1.4,2.2-2.6,4.1-1.8,4.5c1,0.6,3.6-0.8,5-3.3
			C181,157.1,181,154.6,180.2,154.2"/>
		<path class="st38" d="M156.1,218.6c6.4-4.7,28.9-10,28.9-10s2.6,0.4,3.8-1.4c0,0-7.6,0-8.4-1.6c-21.5,5.9-10.9,4-27.9,10.4
			C152.5,215.9,155.5,219.1,156.1,218.6L156.1,218.6z"/>
		<path class="st39" d="M141.5,189.3c0.8,0.2,1.6,0,2.6,0.2c1.2,0.2,2.8,0.4,3.8,0c-2.2-0.8-4.8-0.6-6.6-2.2
			c0.2,0.5,0.2,0.9,0.2,1.5"/>
		<path class="st40" d="M144.5,184.6c0,0,1-10.2,6.4-11c0,0,19.3,5.9,23.7-10.8c0,0-12.1,5.5-18.5,5.1c-6.2-0.7-15.7,5.5-13.5,15.9
			L144.5,184.6L144.5,184.6z"/>
		<g id="arm_21_-Clipped" transform="translate(742.6 336.95)">
			<defs>
				<filter id="Adobe_OpacityMaskFilter" filterUnits="userSpaceOnUse" x="-577.5" y="-156.8" width="43.8" height="22.9">
					<feColorMatrix  type="matrix" values="1 0 0 0 0  0 1 0 0 0  0 0 1 0 0  0 0 0 1 0"/>
				</filter>
			</defs>
			<mask maskUnits="userSpaceOnUse" x="-577.5" y="-156.8" width="43.8" height="22.9" id="mask-20_1_">
				<g class="st41">
					<path id="path-19_1_" class="st31" d="M-1306.4,325.1c0,0,18.1-3.7,30.1-2.7c-1.2,11.9-14.3,20.1-16.3,20.9
						c-6,2.2-8.8,3.4-20.7-1.9C-1331.9,333.2-1306.4,325.1-1306.4,325.1z"/>
				</g>
			</mask>
			<path id="arm_21_" class="st42" d="M-563.8-153.9c0,0,18.1-3.7,30-2.7c-1.2,11.9-14.3,20.1-16.3,20.9c-6,2.2-8.8,3.4-20.7-1.9
				C-589.3-145.8-563.8-153.9-563.8-153.9z"/>
		</g>
		<path class="st32" d="M166.2,195.1c1.4-5.1,12.7-9.6,12.7-9.6s17.5-5.1,29.7-5.1c-11.9-1.4-30,1.8-30,1.8S158.7,187.7,166.2,195.1
			L166.2,195.1z"/>
		<g id="Clipped" transform="translate(741.63 333.9)">
			<defs>
				<filter id="Adobe_OpacityMaskFilter_1_" filterUnits="userSpaceOnUse" x="-577.2" y="-146" width="24.5" height="19.6">
					<feColorMatrix  type="matrix" values="1 0 0 0 0  0 1 0 0 0  0 0 1 0 0  0 0 0 1 0"/>
				</filter>
			</defs>
			<mask maskUnits="userSpaceOnUse" x="-577.2" y="-146" width="24.5" height="19.6" id="mask-22_1_">
				<g class="st43">
					<path id="path-21_1_" class="st31" d="M-577.2-143.8c0.2-0.4,1.6-2.1,1.6-2.1c12.7-0.8,21.7,14.6,21.7,14.6l-2.6,3
						C-562.5-139.1-577.2-143.8-577.2-143.8"/>
				</g>
			</mask>
			<path class="st44" d="M-556.5-126.4l3.8-5.7c0,0-10.2-14.5-22.9-13.9c0,0-1.4,1.9-1.6,2.1C-577.2-143.8-562.5-137.4-556.5-126.4"
				/>
		</g>
		<g id="Clipped_2_" transform="translate(741.63 333.9)">
			<defs>
				<filter id="Adobe_OpacityMaskFilter_2_" filterUnits="userSpaceOnUse" x="-577.8" y="-146.4" width="8.5" height="5.3">
					<feColorMatrix  type="matrix" values="1 0 0 0 0  0 1 0 0 0  0 0 1 0 0  0 0 0 1 0"/>
				</filter>
			</defs>
			<mask maskUnits="userSpaceOnUse" x="-577.8" y="-146.4" width="8.5" height="5.3" id="mask-24_1_">
				<g class="st45">
					<path id="path-23_1_" class="st31" d="M-577.2-143.8c0.2-0.4,1.6-2.1,1.6-2.1c12.7-0.8,21.7,14.6,21.7,14.6l-2.6,3
						C-562.5-139.1-577.2-143.8-577.2-143.8"/>
				</g>
			</mask>
			<g class="st46">
				<g id="Clipped_1_" transform="translate(-.4 13.28)">
					<defs>
						<filter id="Adobe_OpacityMaskFilter_3_" filterUnits="userSpaceOnUse" x="-577.4" y="-159.7" width="8.5" height="5.3">
							<feColorMatrix  type="matrix" values="1 0 0 0 0  0 1 0 0 0  0 0 1 0 0  0 0 0 1 0"/>
						</filter>
					</defs>
					<mask maskUnits="userSpaceOnUse" x="-577.4" y="-159.7" width="8.5" height="5.3" id="mask-26_1_">
						<g class="st47">
							<path id="path-25_1_" class="st31" d="M-577.3-154.4h8.4v-5.3h-8.4L-577.3-154.4z"/>
						</g>
					</mask>
					<path class="st48" d="M-568.8-158.7c0,0-2.8,2.7-3.2,3.9s-4.9-0.8-4.9-0.8l-0.4-1.2l1.2-2.9L-568.8-158.7L-568.8-158.7z"/>
				</g>
			</g>
		</g>
		<g id="Clipped_3_" transform="translate(737.25 323.67)">
			<defs>
				<filter id="Adobe_OpacityMaskFilter_4_" filterUnits="userSpaceOnUse" x="-577.8" y="-134.8" width="28.2" height="27.4">
					<feColorMatrix  type="matrix" values="1 0 0 0 0  0 1 0 0 0  0 0 1 0 0  0 0 0 1 0"/>
				</filter>
			</defs>
			<mask maskUnits="userSpaceOnUse" x="-577.8" y="-134.8" width="28.2" height="27.4" id="mask-28_1_">
				<g class="st49">
					<path id="path-27_1_" class="st31" d="M-572-109.4c-11.3-7.3-1.4-24.1-1-24.5c0.2-0.2,0.6-0.2,0.6-0.2
						c12.7,0.2,21.3,14.9,21.3,14.9c0.2,0.2,0.2,0.4,0.2,0.6c0,0.2-7.8,11.2-16.3,10.8C-568.8-108-570.4-108.4-572-109.4"/>
				</g>
			</mask>
			<path class="st50" d="M-549.7-121.3c0,0-9.3-13.3-22.1-13.5c0,0-1.2-0.2-1.4,0c-0.4,0.2-11,17.8,1.2,25.3
				c12.1,7.8,22.1-10,22.1-10S-549.5-121-549.7-121.3"/>
		</g>
		<g id="Clipped_5_" transform="translate(737.25 323.67)">
			<defs>
				<filter id="Adobe_OpacityMaskFilter_5_" filterUnits="userSpaceOnUse" x="-582.7" y="-135.8" width="17.5" height="20.4">
					<feColorMatrix  type="matrix" values="1 0 0 0 0  0 1 0 0 0  0 0 1 0 0  0 0 0 1 0"/>
				</filter>
			</defs>
			<mask maskUnits="userSpaceOnUse" x="-582.7" y="-135.8" width="17.5" height="20.4" id="mask-30_1_">
				<g class="st51">
					<path id="path-29_1_" class="st31" d="M-572-109.4c-11.3-7.3-1.4-24.1-1-24.5c0.2-0.2,0.6-0.2,0.6-0.2
						c12.7,0.2,21.3,14.9,21.3,14.9c0.2,0.2,0.2,0.4,0.2,0.6c0,0.2-7.8,11.2-16.3,10.8C-568.8-108-570.4-108.4-572-109.4"/>
				</g>
			</mask>
			<g class="st52">
				<g id="Clipped_4_" transform="translate(-5.97 7.15)">
					<defs>
						<filter id="Adobe_OpacityMaskFilter_6_" filterUnits="userSpaceOnUse" x="-576.8" y="-142.9" width="17.5" height="20.4">
							<feColorMatrix  type="matrix" values="1 0 0 0 0  0 1 0 0 0  0 0 1 0 0  0 0 0 1 0"/>
						</filter>
					</defs>
					<mask maskUnits="userSpaceOnUse" x="-576.8" y="-142.9" width="17.5" height="20.4" id="mask-32_1_">
						<g class="st53">
							<path id="path-31_1_" class="st31" d="M-576.8-122.4h16.9v-20.8h-16.9V-122.4z"/>
						</g>
					</mask>
					<path class="st54" d="M-559.3-141.3c0,0-10.6,8.4-12,16.1c-1.4,7.6-5.6-3.9-5.6-3.9l6.8-10l4-3.9L-559.3-141.3L-559.3-141.3z"
						/>
				</g>
			</g>
		</g>
		<path class="st55" d="M187.9,208.1c1.2-0.4,3.8-3.7,4-3.9l-2.8-1.2l-2.2,3.9l-2.4,0.6C184.5,207.5,186.7,208.5,187.9,208.1
			L187.9,208.1z"/>
		<path class="st56" d="M190.2,206.1c0-0.2,0-0.6-0.4-0.6c-0.2,0-0.6,0-0.6,0.4c0,0.2,0,0.6,0.4,0.6
			C189.7,206.5,190.2,206.5,190.2,206.1"/>
		<path class="st57" d="M280.1,186.5h73.2v-45.2h-73.2V186.5z"/>
		<path class="st58" d="M280.1,141.1h73.2v-2.2h-73.2V141.1z"/>
		<path class="st59" d="M280.1,188.5h73.2v-2.2h-73.2V188.5z"/>
		<path class="st59" d="M282.3,141.1l-2.2-2.2v49.6h2.2V141.1z"/>
		<path class="st58" d="M350.7,141.1l2.4-2.2v49.6l-2.4-2V141.1z"/>
		<path class="st57" d="M280.1,236.1h73.2V191h-73.2V236.1z"/>
		<path class="st58" d="M280.1,190.8h73.2v-2.3h-73.2V190.8z"/>
		<path class="st59" d="M280.1,238.2h73.2v-2.3h-73.2V238.2z"/>
		<path class="st59" d="M282.3,190.8l-2.2-2.2v49.7h2.2V190.8z"/>
		<path class="st58" d="M350.7,190.8l2.4-2.2v49.7l-2.4-2.1V190.8z"/>
		<path class="st57" d="M280.1,285.8h73.2v-45.2h-73.2V285.8z"/>
		<path class="st58" d="M280.1,240.4h73.2v-2.2h-73.2V240.4z"/>
		<path class="st59" d="M280.1,288h73.2v-2.2h-73.2V288z"/>
		<path class="st59" d="M282.3,240.4l-2.2-2.2V288h2.2V240.4z"/>
		<path class="st58" d="M350.7,240.4l2.4-2.2V288l-2.4-2.3V240.4z"/>
		<path class="st60" d="M247.4,287.4h19.7V134.2h-19.7V287.4z"/>
		<path class="st61" d="M257.2,225.5h6v-14.7h-5.9L257.2,225.5z M257.2,251.5h6v-9.4h-5.9L257.2,251.5z M257.2,279h6v-9.4h-5.9
			L257.2,279z"/>
		<path class="st62" d="M247.4,269.6h5V134.2h-5V269.6z"/>
		<path class="st60" d="M267.1,138.9h91.2v-4.7h-91.2V138.9z"/>
		<path class="st63" d="M97.4,167.3h50.2V126H97.4V167.3z"/>
		<path class="st64" d="M147.5,167.3h60.7V126h-60.7v21.3l-26.9,6.2v13.9L147.5,167.3z M89.4,169.7v32.7h27.5v-48.6L99,148.1V126
			l-15.3,7.8v33.5L89.4,169.7z"/>
		<path class="st65" d="M208.2,126l36.2,9v38.6h-36.2V126z"/>
		<path class="st64" d="M208.2,167.3l50.9,4.3l-9.7,7.1H206l-10.8-11.5L208.2,167.3z"/>
		<ellipse class="st66" cx="243.7" cy="135.8" rx="26.1" ry="26.8"/>
		
			<linearGradient id="SVGID_17_" gradientUnits="userSpaceOnUse" x1="-577.051" y1="681.2393" x2="-577.051" y2="682.243" gradientTransform="matrix(35.02 0 0 35.96 20451.9863 -24379.6895)">
			<stop  offset="0" style="stop-color:#4A4A4A"/>
			<stop  offset="1" style="stop-color:#29282A"/>
		</linearGradient>
		<ellipse class="st67" cx="243.7" cy="135.8" rx="17.5" ry="18"/>
		<ellipse class="st66" cx="243.7" cy="135.8" rx="11.3" ry="11.6"/>
		<ellipse class="st68" cx="243.7" cy="135.8" rx="7.8" ry="8"/>
		<ellipse class="st66" cx="122.4" cy="129.9" rx="20.5" ry="21"/>
		
			<linearGradient id="SVGID_18_" gradientUnits="userSpaceOnUse" x1="-577.051" y1="681.243" x2="-577.051" y2="682.243" gradientTransform="matrix(27.46 0 0 28.2 15968.2705 -19095.2852)">
			<stop  offset="0" style="stop-color:#4A4A4A"/>
			<stop  offset="1" style="stop-color:#29282A"/>
		</linearGradient>
		<ellipse class="st69" cx="122.4" cy="129.9" rx="13.7" ry="14.1"/>
		<ellipse class="st66" cx="122.4" cy="129.9" rx="8.8" ry="9"/>
		<ellipse class="st68" cx="122.4" cy="129.9" rx="6.2" ry="6.3"/>
		<path class="st60" d="M223.7,195.5l-28.5,91.9h6.6l30.5-91.5l9.8-17.2h-24.7L223.7,195.5z M133.4,295h68.5v-7.6h-68.4L133.4,295z
			 M195.3,167.3h-78.4v35.1l16.5,85h8.2l9.4-81.1L195.3,167.3z"/>
		<path class="st9" d="M295.2,218.1h37.6v-12.9h-18.7v-2.1h-8.3v2h-10.3l-0.2,12.8L295.2,218.1z M297.2,207.3h4.2v6.5h2v-6.5h2v8.6
			h-8.3L297.2,207.3L297.2,207.3z M307.5,215.9v-10.8h4.2v2.2h4.2v8.6L307.5,215.9L307.5,215.9z M311.7,213.9h2.2v-4.5h-2.2V213.9z
			 M318.1,215.9v-8.6h4.2v6.4h2v-6.3h2v6.3h2v-6.3h2v8.6L318.1,215.9L318.1,215.9z M295.2,266.4h37.6v-12.9h-18.7v-2h-8.3v2.1h-10.3
			l-0.2,12.9L295.2,266.4z M297.2,255.7h4.2v6.5h2v-6.5h2v8.6h-8.3L297.2,255.7L297.2,255.7z M307.5,264.3v-10.8h4.2v2.3h4.2v8.6
			L307.5,264.3L307.5,264.3z M311.7,262.1h2.2v-4.5h-2.2V262.1z M318.1,264.3v-8.6h4.2v6.3h2v-6.4h2v6.3h2v-6.4h2v8.7L318.1,264.3
			L318.1,264.3z M295.2,169.9h37.6V157h-18.7v-2.1h-8.3v2h-10.3l-0.2,12.8L295.2,169.9z M297.2,159.1h4.2v6.5h2V159h2v8.6h-8.3
			l0.2-8.6L297.2,159.1z M307.5,167.7v-10.9h4.2v2.2h4.2v8.6L307.5,167.7L307.5,167.7z M311.7,165.6h2.2v-4.5h-2.2V165.6z
			 M318.1,167.6V159h4.2v6.3h2v-6.4h2v6.3h2v-6.3h2v8.6h-12.2V167.6z"/>
	</g>
	<g>
		<g id="detail_1_">
			
				<linearGradient id="SVGID_19_" gradientUnits="userSpaceOnUse" x1="-577.2747" y1="681.5452" x2="-576.5319" y2="682.2024" gradientTransform="matrix(145.9778 0 0 -215.6752 85260.8594 147304.8125)">
				<stop  offset="0" style="stop-color:#925443"/>
				<stop  offset="7.210000e-02" style="stop-color:#9F624B"/>
				<stop  offset="0.2286" style="stop-color:#B97C59"/>
				<stop  offset="0.3934" style="stop-color:#D09465"/>
				<stop  offset="0.5682" style="stop-color:#E1A76F"/>
				<stop  offset="0.7598" style="stop-color:#EEB475"/>
				<stop  offset="1" style="stop-color:#F3B978"/>
			</linearGradient>
			<path class="st70" d="M951.3,161.9h146v215.7h-146V161.9z"/>
			
				<linearGradient id="SVGID_20_" gradientUnits="userSpaceOnUse" x1="-577.051" y1="681.6346" x2="-577.051" y2="682.14" gradientTransform="matrix(16.255 0 0 -215.6752 10485.3467 147304.8281)">
				<stop  offset="0" style="stop-color:#845A39"/>
				<stop  offset="0.2216" style="stop-color:#A06D45"/>
				<stop  offset="0.5298" style="stop-color:#C58554"/>
				<stop  offset="0.7042" style="stop-color:#D5905B"/>
			</linearGradient>
			<path class="st71" d="M1113.5,169.7l-16.3-7.8v215.7h16.3V169.7z"/>
			
				<linearGradient id="SVGID_21_" gradientUnits="userSpaceOnUse" x1="-577.051" y1="680.5563" x2="-577.051" y2="682.1501" gradientTransform="matrix(89.0707 0 0 -81.7371 52424.5195 55844.7656)">
				<stop  offset="0" style="stop-color:#9C663F"/>
				<stop  offset="0.1931" style="stop-color:#BB8557"/>
				<stop  offset="0.447" style="stop-color:#E5B179"/>
				<stop  offset="0.5782" style="stop-color:#FDC789"/>
			</linearGradient>
			<path class="st72" d="M981.7,80.2h89.1v81.7h-89.1V80.2z"/>
			
				<linearGradient id="SVGID_22_" gradientUnits="userSpaceOnUse" x1="-577.051" y1="680.7352" x2="-577.051" y2="682.0786" gradientTransform="matrix(20.1383 0 0 -81.7516 12701.6523 55854.6172)">
				<stop  offset="0" style="stop-color:#845A39"/>
				<stop  offset="0.2216" style="stop-color:#A06D45"/>
				<stop  offset="0.5298" style="stop-color:#C58554"/>
				<stop  offset="0.7042" style="stop-color:#D5905B"/>
			</linearGradient>
			<path class="st73" d="M1090.9,94l-20.1-13.9v81.8h20.1V94z"/>
			
				<linearGradient id="SVGID_23_" gradientUnits="userSpaceOnUse" x1="-577.051" y1="681.6547" x2="-577.051" y2="682.2115" gradientTransform="matrix(25.4508 0 0 -199.3624 15543.3096 136191.8906)">
				<stop  offset="0" style="stop-color:#925443"/>
				<stop  offset="0.1622" style="stop-color:#B67A58"/>
				<stop  offset="0.3336" style="stop-color:#DEA46D"/>
				<stop  offset="0.4222" style="stop-color:#F3B978"/>
			</linearGradient>
			<path class="st74" d="M844.2,188.6l25.5-10.3v199.4h-25.5V188.6z"/>
			
				<linearGradient id="SVGID_24_" gradientUnits="userSpaceOnUse" x1="-576.8559" y1="681.4024" x2="-577.3094" y2="682.1942" gradientTransform="matrix(122.9955 0 0 -199.3624 71905.7812 136191.8906)">
				<stop  offset="0" style="stop-color:#713D2F"/>
				<stop  offset="7.950000e-02" style="stop-color:#804C37"/>
				<stop  offset="0.2347" style="stop-color:#9C6745"/>
				<stop  offset="0.3983" style="stop-color:#B47D50"/>
				<stop  offset="0.5717" style="stop-color:#C68E58"/>
				<stop  offset="0.7617" style="stop-color:#D19A5D"/>
				<stop  offset="1" style="stop-color:#D69F60"/>
			</linearGradient>
			<path class="st75" d="M869.6,178.3h123v199.4h-123V178.3z"/>
			
				<linearGradient id="SVGID_25_" gradientUnits="userSpaceOnUse" x1="-576.4515" y1="681.0066" x2="-577.3485" y2="682.1085" gradientTransform="matrix(122.9955 0 0 -111.9375 71852.7578 76634.5859)">
				<stop  offset="0" style="stop-color:#713D2F"/>
				<stop  offset="1.560000e-02" style="stop-color:#733F30"/>
				<stop  offset="0.2616" style="stop-color:#996444"/>
				<stop  offset="0.4831" style="stop-color:#B88152"/>
				<stop  offset="0.6705" style="stop-color:#CD965B"/>
				<stop  offset="0.8011" style="stop-color:#D69F60"/>
			</linearGradient>
			<path class="st76" d="M816.6,266h123V378h-123V266z"/>
			
				<linearGradient id="SVGID_26_" gradientUnits="userSpaceOnUse" x1="-577.3269" y1="680.8307" x2="-576.9174" y2="682.1688" gradientTransform="matrix(17.6553 0 0 -111.591 10995.7891 76398.2031)">
				<stop  offset="0" style="stop-color:#925443"/>
				<stop  offset="0.1853" style="stop-color:#B67A58"/>
				<stop  offset="0.3812" style="stop-color:#DEA46D"/>
				<stop  offset="0.4824" style="stop-color:#F3B978"/>
			</linearGradient>
			<path class="st77" d="M798.9,268.5l17.7-2.5v111.6l-17.7-6.1V268.5z"/>
			
				<linearGradient id="SVGID_27_" gradientUnits="userSpaceOnUse" x1="-577.1346" y1="681.0353" x2="-576.9869" y2="682.2862" gradientTransform="matrix(204.2995 0 0 -111.9375 118956.6875 76634.5859)">
				<stop  offset="0" style="stop-color:#9D5C48"/>
				<stop  offset="8.680000e-02" style="stop-color:#AC6C51"/>
				<stop  offset="0.2408" style="stop-color:#C48660"/>
				<stop  offset="0.403" style="stop-color:#D99E6C"/>
				<stop  offset="0.5751" style="stop-color:#EAB076"/>
				<stop  offset="0.7636" style="stop-color:#F7BD7D"/>
				<stop  offset="1" style="stop-color:#FDC27F"/>
			</linearGradient>
			<path class="st78" d="M963.3,266h204.3V378H963.3V266z"/>
			<path class="st9" d="M843.8,306.9h60.8v20.6h-30.4v3.2h-13.4v-3.2h-16.9V306.9z M847.3,323.9h6.7v-10.3h3.5V324h3.2v-13.5h-13.4
				L847.3,323.9L847.3,323.9z M863.9,310.5v17.1h6.7V324h6.6v-13.5H863.9L863.9,310.5z M870.7,313.7h3.5v7.1h-3.6v-7.1H870.7z
				 M880.9,310.5V324h6.6v-10.3h3.5V324h3.2v-10.3h3.5v10h3.5v-13.5l-20.5,0.4H880.9z"/>
			
				<linearGradient id="SVGID_28_" gradientUnits="userSpaceOnUse" x1="-576.6756" y1="680.9924" x2="-577.2807" y2="682.2021" gradientTransform="matrix(125.132 0 0 -111.9374 73159.8984 76667.6172)">
				<stop  offset="0" style="stop-color:#713D2F"/>
				<stop  offset="1.560000e-02" style="stop-color:#733F30"/>
				<stop  offset="0.2616" style="stop-color:#996444"/>
				<stop  offset="0.4831" style="stop-color:#B88152"/>
				<stop  offset="0.6705" style="stop-color:#CD965B"/>
				<stop  offset="0.8011" style="stop-color:#D69F60"/>
			</linearGradient>
			<path class="st79" d="M889.8,299.1h125.1V411H889.8V299.1z"/>
			
				<linearGradient id="SVGID_29_" gradientUnits="userSpaceOnUse" x1="-577.1231" y1="680.8344" x2="-577.0237" y2="682.0874" gradientTransform="matrix(24.0361 0 0 -111.591 14747.7959 76431.25)">
				<stop  offset="0" style="stop-color:#925443"/>
				<stop  offset="0.1853" style="stop-color:#B67A58"/>
				<stop  offset="0.3812" style="stop-color:#DEA46D"/>
				<stop  offset="0.4824" style="stop-color:#F3B978"/>
			</linearGradient>
			<path class="st80" d="M865.7,299.1h24v111.6l-24-8.5L865.7,299.1z"/>
			<path class="st9" d="M921.9,339.2h60.8v20.6h-30.4v3.2h-13.4v-3.2h-17L921.9,339.2L921.9,339.2z M925.5,356.3h6.7V346h3.5v10.3
				h3.2v-13.5h-13.4L925.5,356.3L925.5,356.3z M942.4,342.8v17.1h6.7v-3.6h6.7v-13.5H942.4z M948.8,346h3.5v7.1h-3.5L948.8,346
				L948.8,346z M959,342.8v13.5h6.7V346h3.2v10.3h3.2v-10h3.5v10h3.6v-13.5h-20.1H959z"/>
			
				<linearGradient id="SVGID_30_" gradientUnits="userSpaceOnUse" x1="-577.1928" y1="681.1284" x2="-576.9376" y2="682.2352" gradientTransform="matrix(89.0707 0 0 -81.7083 52478.9453 56064.2227)">
				<stop  offset="0" style="stop-color:#9D5C48"/>
				<stop  offset="8.680000e-02" style="stop-color:#AC6C51"/>
				<stop  offset="0.2408" style="stop-color:#C48660"/>
				<stop  offset="0.403" style="stop-color:#D99E6C"/>
				<stop  offset="0.5751" style="stop-color:#EAB076"/>
				<stop  offset="0.7636" style="stop-color:#F7BD7D"/>
				<stop  offset="1" style="stop-color:#FDC27F"/>
			</linearGradient>
			<path class="st81" d="M1036.1,319.3h89.1V401h-89.1V319.3z"/>
			<path class="st13" d="M925.8,360.2h148.1v74.6H925.8L925.8,360.2z"/>
			<path class="st14" d="M1066.1,353.4H933.9l-8.1,6.8h148.4L1066.1,353.4z"/>
			
				<linearGradient id="SVGID_31_" gradientUnits="userSpaceOnUse" x1="-577.051" y1="680.8268" x2="-577.051" y2="682.1592" gradientTransform="matrix(14.1474 0 0 -82.4301 9295.9863 56555.9766)">
				<stop  offset="0" style="stop-color:#845A39"/>
				<stop  offset="0.2216" style="stop-color:#A06D45"/>
				<stop  offset="0.5298" style="stop-color:#C58554"/>
				<stop  offset="0.7042" style="stop-color:#D5905B"/>
			</linearGradient>
			<path class="st82" d="M1139.3,318.6l-14.1,0.7v81.7l14.1-5V318.6z"/>
			
				<linearGradient id="SVGID_32_" gradientUnits="userSpaceOnUse" x1="-577.051" y1="680.9012" x2="-577.051" y2="682.191" gradientTransform="matrix(24.397 0 0 -111.591 15258.0732 76398.2031)">
				<stop  offset="0" style="stop-color:#845A39"/>
				<stop  offset="0.2216" style="stop-color:#A06D45"/>
				<stop  offset="0.5298" style="stop-color:#C58554"/>
				<stop  offset="0.7042" style="stop-color:#D5905B"/>
			</linearGradient>
			<path class="st83" d="M1192,269.6l-24.4-3.5v111.6l24.4-7.1V269.6z"/>
			
				<linearGradient id="SVGID_33_" gradientUnits="userSpaceOnUse" x1="-577.051" y1="680.5208" x2="-577.051" y2="682.1263" gradientTransform="matrix(73.523 0 0 -61.108 43359.7656 41807.2734)">
				<stop  offset="0" style="stop-color:#7E4435"/>
				<stop  offset="9.729999e-02" style="stop-color:#864C39"/>
				<stop  offset="0.2559" style="stop-color:#9C6244"/>
				<stop  offset="0.4551" style="stop-color:#C48A58"/>
				<stop  offset="0.5572" style="stop-color:#E1A766"/>
			</linearGradient>
			<path class="st84" d="M896.5,116.8H970v61.1h-73.5V116.8z"/>
			
				<linearGradient id="SVGID_34_" gradientUnits="userSpaceOnUse" x1="-575.7902" y1="680.9505" x2="-577.8391" y2="682.2384" gradientTransform="matrix(13.4256 0 0 -61.4689 8636.9971 42053.4961)">
				<stop  offset="0" style="stop-color:#925443"/>
				<stop  offset="0.1187" style="stop-color:#A76A4F"/>
				<stop  offset="0.3724" style="stop-color:#EAB073"/>
				<stop  offset="0.3928" style="stop-color:#F3B978"/>
			</linearGradient>
			<path class="st85" d="M896.5,116.8l-13.4,8.9v52.6h13.4V116.8z"/>
			<path class="st14" d="M1139.3,318.6h-82.4l-20.9,0.4h89.1L1139.3,318.6z"/>
			<path class="st19" d="M1024.1,266H993v-77.8l31.2,26.3L1024.1,266z M1001.5,161.9h-19.8v-23.1l19.8,16.7L1001.5,161.9z"/>
			<path class="st14" d="M889.8,299.5l-24-0.4h149.2L889.8,299.5z M1050.2,267.1l-87-1h204L1050.2,267.1z M879.2,266.4l-62.6-0.4
				h122.6L879.2,266.4z M932.5,178.6l-62.9-0.4H993L932.5,178.6z M1035,162.7l-65-0.8h127.2L1035,162.7z"/>
			<path class="st20" d="M994.7,360.2h10.6v21.3h-10.7L994.7,360.2z"/>
			<path class="st21" d="M1020.2,80.2h10.6v21.3h-10.5L1020.2,80.2z"/>
			<path class="st20" d="M955.9,299.5h-9.2v20.9h9.2V299.5z"/>
			<path class="st22" d="M1004.6,353.4h-9.2l-0.7,6.8h10.6L1004.6,353.4z"/>
			<path class="st22" d="M1071.1,357.3H929l1.7-1.1h138.6L1071.1,357.3z"/>
			<path class="st23" d="M1131.5,319v17.8h2.8V319H1131.5z M1182.8,268.2v17.4l-3.5-0.4v-17.5L1182.8,268.2z M1107.9,167.3v16.7
				l-3.6-0.7v-17.8L1107.9,167.3z M1083.5,89.1v16.7l-3.2-1.1V87L1083.5,89.1z"/>
			<path class="st24" d="M920.1,164.8h-7.4c-0.7,0-1.4,0.7-1.4,1.4v7.5c0,0.7,0.7,1.4,1.4,1.4h7.4c0.7,0,1.4-0.7,1.4-1.4v-7.5
				C921.9,165.5,921.2,164.8,920.1,164.8z M918.4,165.5c0,0,0.3,0.7,0.3,1.1s-0.4,0.4-0.4,0.4c-0.4,0-0.4-0.4-0.4-0.4
				c0-0.4,0.3-1.1,0.3-1.1L918.4,165.5z M919.8,170.5c0-0.4-0.4-0.7-0.7-0.7c-0.3,0-0.7,0.4-0.7,0.7c0-0.4-0.4-0.7-0.7-0.7
				c-0.3,0-0.3,0-0.7,0.4v3.2c0,0.7-0.4,1-1.1,1c-0.7,0-1.1-0.4-1.1-1.2h0.3c0,0.3,0.4,0.7,0.7,0.7c0.3,0,0.7-0.4,0.7-0.7v-3.2
				c0,0-0.3-0.4-0.7-0.4c-0.4,0-0.7,0.3-0.7,0.7c0-0.4-0.3-0.7-0.7-0.7c-0.4,0-0.7,0.3-0.7,0.7c0-1.9,1.4-3.2,2.8-3.2v-0.3h0.4v0.3
				c1.4,0.3,2.8,1.4,2.8,3.2V170.5z M919.4,168c-0.3,0-0.3-0.3-0.3-0.3c0-0.3,0.3-1,0.3-1s0.4,0.7,0.4,1.2s-0.4,0.4-0.4,0.4V168z
				 M931.8,164.8h-7.4c-0.6,0-1.3,0.7-1.3,1.4v7.5c0,0.7,0.7,1.4,1.4,1.4h7.5c0.7,0,1.4-0.7,1.4-1.4v-7.4c0.4-0.7-0.3-1.4-1.3-1.4
				L931.8,164.8z M926.5,166.7l1.1,1.4H927v4.6h-1v-4.6h-0.3l1.2-1.3L926.5,166.7z M930.8,173.7h-4.6v-1.2h4.6V173.7z M930.8,168.1
				v4.6h-1.1v-4.6H929l1.1-1.3l1.1,1.4h-0.3V168.1z M908.5,164.9h-7.4c-0.7,0-1.4,0.7-1.4,1.4v7.5c0,0.7,0.7,1.4,1.4,1.4h7.4
				c0.6,0,1.3-0.7,1.3-1.4v-7.4c0.3-0.7-0.4-1.3-1.4-1.3L908.5,164.9z M904.6,167.4l-0.4,0.4l0.4-1v0.7V167.4z M902.8,169.8v-1v1.2
				V169.8z M902.8,166.4h1.4l-0.7,1.9l-0.3-0.6l-0.3,1.4l-0.4,1l0.4-3.5V166.4z M906.4,170.3c0,0.7-0.3,1.4-1.1,1.4v2.5l1,0.7h-3.2
				l1-0.7v-2.5c-0.7,0-1.2-0.7-1.2-1.4V170l0.3-0.3l0.3-1l0.3,0.4l1-1.7h1v3.2L906.4,170.3z M1033.9,144h-9.2
				c-1.1,0-1.8,0.7-1.8,1.9v9.2c0,1.2,0.7,1.9,1.8,1.9h9.2c1.2,0,1.9-0.7,1.9-1.7V146c0.4-0.7-0.7-1.7-1.7-1.7L1033.9,144z
				 M1031.5,144.7c0,0,0.3,1.2,0.3,1.4c0,0.4-0.3,0.4-0.3,0.4c-0.4,0-0.4-0.3-0.4-0.3c0-0.3,0.4-1.3,0.4-1.3V144.7z M1033.3,151.2
				c0-0.3-0.3-0.7-1.1-0.7c-0.4,0-1.2,0.4-1.2,0.7c0-0.3-0.4-0.7-1.2-0.7c-0.4,0-0.7,0-0.7,0.4v3.9c0,0.7-0.7,1.4-1.4,1.4
				s-1.4-0.7-1.4-1.4h0.3c0,0.4,0.3,1.2,1,1.2s1-0.3,1-1v-4.1c0-0.4-0.4-0.4-0.7-0.4c-0.4,0-1.2,0.4-1.2,0.7c0-0.3-0.4-0.7-1-0.7
				c-0.4,0-1.2,0.4-1.2,0.7c0-2.1,1.7-3.9,3.5-3.9V147h0.3v0.3c2.5,0,4.2,1.7,4.2,3.9L1033.3,151.2z M1032.9,148.5
				c-0.4,0-0.4-0.3-0.4-0.3c0-0.3,0.4-1.3,0.4-1.3s0.3,1.2,0.3,1.4c0,0,0,0.4-0.3,0.4V148.5z M1048.5,144.3h-9.2
				c-1.1,0-1.8,0.7-1.8,1.9v9.2c0,1.2,0.7,1.9,1.8,1.9h9.1c1,0,1.7-0.7,1.7-1.7v-9.2c0-0.7-0.7-1.7-1.9-1.7L1048.5,144.3z
				 M1041.7,146.4l1.4,1.9h-1.1v5.6h-1.1v-5.8h-0.6l1.4-1.7H1041.7z M1046.7,155.4h-5.7v-1.2h5.8v1.2H1046.7z M1046.7,148.3v5.6
				h-1.1v-5.8h-0.7l1.3-1.7l1.4,1.9h-1.2H1046.7z M1063,144.4h-9.2c-1.1,0-1.8,0.7-1.8,1.9v9.2c0,1,0.7,1.7,1.8,1.7h9.2
				c1,0,1.7-0.7,1.7-1.7v-9.2c0-0.7-0.7-1.7-1.9-1.7L1063,144.4z M1058.3,153.4v2.5h-2.1v-1.4l-1.8-2v-3.6c0-0.3,0.4-0.3,0.4-0.3
				c0.4,0,0.4,0.3,0.4,0.3v2.2c0,0-0.3,0-0.3,0.4v0.3c0,0.4,0,0.4,0.4,0.4l1.9,1.4l-1.7-1.4c-0.3,0-0.3-0.4,0-0.7
				c0-0.4,0.4-0.4,0.7,0l1.9,1.4c0-0.4,0.7,0,0.7,0.7L1058.3,153.4z M1058.3,151.6l-2.1-1.4V148l2.1,1.4v2L1058.3,151.6z
				 M1055.9,147.7l2.5-1.4l2.5,1.4l-2.5,1.4L1055.9,147.7L1055.9,147.7z M1060.8,148.2v2l-2.1,1.4v-2.2l2.1-1.4V148.2z
				 M1062.6,152.1C1062.6,152.1,1062.2,152.5,1062.6,152.1l-2.1,2.6v1h-1.8v-2.9c0-0.7,0.7-1,0.7-1l1.8-1.3h0.7v0.7l-1.8,1.4
				l1.8-1.4l0.3-0.3v-0.3l-0.3-0.4V148c0-0.4,0.3-0.4,0.3-0.4l0.4,0.3v3.9V152.1z M1019.5,144.7h-9.2c-1,0-1.7,0.7-1.7,1.9v9.2
				c0,1.2,0.7,1.9,1.9,1.9h9.2c1.2,0,1.9-0.7,1.9-1.7v-9.4c0.4-0.7-0.7-1.7-1.7-1.7L1019.5,144.7z M1014.9,147.6l-0.4,0.7l0.3-1.4
				v0.7H1014.9z M1012.7,151.2l-0.4-1l0.3,0.7v0.4L1012.7,151.2z M1012.7,146.6h1.7l-0.7,2.2l-0.4-1l-0.4,1.4l-0.4,1v-3.6
				L1012.7,146.6z M1016.9,151.2c0,1.2-0.7,1.9-1.4,1.9v2.7l1.4,0.7h-3.9l1.4-0.7v-2.9c-0.7-0.4-1.4-1-1.4-1.7v-0.7l0.3-0.7l0.3-1.4
				l0.3,0.7l1-2.5h1.3v4.6h0.3H1016.9z M958.6,416.8h-9.5c-1.2,0-2.2,1.2-2.2,2.2v9.5c0,1.2,1,2.2,2,2.2h9.5c1,0,2.2-1,2.2-2.2V419
				c-0.1-1.1-1-2-2.2-2L958.6,416.8z M956.1,417.6c0,0,0.7,1.2,0.7,1.4c0,0.3-0.4,0.7-0.7,0.7c-0.4,0-0.7-0.3-0.7-0.7
				C955.4,418.7,956.1,417.6,956.1,417.6z M957.9,424.3c0-0.3-0.3-0.7-1-0.7s-1.2,0.4-1.2,0.7c0-0.3-0.4-0.7-1.2-0.7
				c-0.4,0-0.7,0-0.7,0.4v4.2c0,0.7-0.7,1.4-1.4,1.4s-1.4-0.7-1.4-1.4h0.3c0,0.3,0.3,1,1,1c0.7,0,1-0.3,1-1v-4.3
				c-0.4-0.3-0.4-0.3-0.7-0.3c-0.7,0-1,0.4-1,0.7c0-0.3-0.4-0.7-1-0.7c-0.7,0-1.2,0.4-1.2,0.7c0-2.2,1.7-3.9,3.9-3.9V420h0.3v0.3
				c2.2,0,3.9,1.7,3.9,3.9L957.9,424.3z M957.6,421.2c-0.4,0-0.7-0.3-0.7-0.7c0-0.3,0.7-1.4,0.7-1.4s0.7,1,0.7,1.4
				C957.9,420.7,957.9,421.2,957.6,421.2z M973.7,417h-9.5c-1.2,0-2.2,1.2-2.2,2.2v9.5c0,1.2,1,2.2,2.2,2.2h9.5c1.1-0.1,2-1,2-2.2
				v-9.5c0-1-1-2-2.2-2L973.7,417z M966.7,419.1l1.3,1.7h-0.7v6.1h-1.4v-5.8h-0.7l1.4-2.2L966.7,419.1z M971.9,428.8h-6.1v-1.2h5.9
				v1.2H971.9z M971.9,421.5v6.1h-1.4v-6.7h-0.7l1.3-1.8l1.4,1.8h-0.7L971.9,421.5z M943.1,417.1h-9.5c-1.2,0-2.2,1.2-2.2,2.2v9.5
				c0,1.2,1,2.2,2.2,2.2h9.5c1,0,2.2-1,2.2-2v-9.5c-0.4-1-1.2-2.1-2.2-2.1V417.1z M937.8,420.3l-0.4,0.7l0.3-1.4v0.7H937.8z
				 M935.6,423.9l-0.4-1l0.3,0.7v0.4L935.6,423.9z M935.6,419h2l-0.7,2.2l-0.3-1l-0.4,1.7l-0.4,1.4l-0.3-4.2L935.6,419z
				 M940.1,423.9c0,1.2-0.7,1.9-1.4,2.2v3l1.3,0.7h-3.9l1.4-0.7v-3.9c-1.2-0.4-1.4-1.1-1.4-2.1v-0.7l0.3-0.7l0.4-1.4l0.4,0.7l1-2.5
				h1.7v4.6L940.1,423.9z M845.8,361.8h-8.7c-1.2,0-1.9,0.7-1.9,1.9v8.8c0,1.2,0.7,1.9,1.7,1.9h8.8c1,0,1.7-0.7,1.7-1.7v-9.5
				c0-0.7-0.7-1.8-1.9-1.8L845.8,361.8z M843.4,362.6c0,0,0.3,1.2,0.3,1.4c0,0.3-0.4,0.4-0.4,0.4c-0.4,0-0.4-0.4-0.4-0.4l0.3-1.4
				H843.4z M845.1,369c0-0.4-0.4-0.7-1-0.7c-0.4,0-1.2,0.3-1.2,0.7c0-0.4-0.4-0.7-1.2-0.7c-0.4,0-0.7,0-0.7,0.3v3.9
				c0,0.7-0.7,1.4-1.4,1.4s-1.4-0.7-1.4-1.4h0.3c0,0.4,0.4,1.2,1,1.2c0.4,0,1.2-0.3,1.2-1v-3.9c0-0.3-0.3-0.3-0.7-0.3
				c-0.3,0-1,0.4-1,0.7c0-0.3-0.3-0.7-1-0.7c-0.3,0-1,0.4-1,0.7c0-2.2,1.7-3.6,3.6-3.9v-0.4h0.4v0.4c2.5,0,4.3,1.7,4.3,3.9
				L845.1,369z M844.7,366.2c-0.3,0-0.3-0.3-0.3-0.3c0-0.3,0.3-1.3,0.3-1.3s0.3,1,0.3,1.4c0,0,0,0.4-0.4,0.4L844.7,366.2z
				 M860.3,362h-8.7c-1.2,0-1.7,0.7-1.7,1.9v8.8c0,1.2,0.6,1.7,1.7,1.7h8.8c1,0,1.7-0.7,1.7-1.7v-9.5c0-0.7-0.7-1.7-1.9-1.7V362z
				 M853.2,364.1l1.4,1.7h-0.7v5.8h-1V366h-0.7l1-1.7V364.1z M858.4,373.1h-5.3v-1.2h5.6v1L858.4,373.1z M858.4,366v5.8h-1V366h-0.7
				l1.4-1.7l1.3,1.7H858.4z M831.4,361.7h-8.7c-1.2,0-1.9,0.7-1.9,1.9v8.8c0,1.2,0.7,1.9,1.7,1.9h8.8c1,0,1.7-0.7,1.7-1.7v-9.4
				c0.3-0.7-0.7-1.8-1.7-1.8V361.7z M826.8,364.4l-0.4,0.7l0.3-1.4v0.7H826.8z M824.6,368l-0.4-1l0.4,0.7v0.4V368z M824.6,363.4h1.7
				l-0.7,2.2l-0.3-1L825,366l-0.3,1.2v-4.1L824.6,363.4z M828.8,368c0,1.2-0.7,1.9-1.4,1.9v2.9l1.4,0.7h-3.9l1.3-0.7v-2.9
				c-0.7-0.3-1.4-1-1.4-1.7v-0.7l0.3-0.6l0.4-1.4l0.4,0.7l1-2.5h1.4v4.6h0.3L828.8,368z"/>
			<path class="st25" d="M1068.2,364.8c0-0.7-0.7-1.4-1.4-1.4h-16.6c-0.7,0-1.4,0.7-1.4,1.4v6.1c0,0.7,0.7,1.4,1.4,1.4h16.6
				c0.7,0,1.4-0.7,1.4-1.4V364.8L1068.2,364.8z"/>
			<path class="st26" d="M1050.6,364.1h16.3v0.8h-16.3V364.1z M1050.6,366.2h0.1v5h-0.1V366.2z M1051.6,366.2h0.1v5h-0.1V366.2z
				 M1052.4,366.2h0.1v5h-0.1V366.2z M1055.5,366.2h0.1v5h-0.1V366.2z M1058.3,366.2h0.1v5h-0.1V366.2z M1056.2,366.2h0.1v5h-0.1
				V366.2z M1064.7,366.2h0.1v5h-0.1V366.2z M1053,366.2h0.4v5h-0.4V366.2z M1054.4,366.2h0.4v5h-0.4L1054.4,366.2z M1056.9,366.2
				h0.4v5h-0.4V366.2z M1061.9,366.2h0.4v5h-0.4V366.2z M1059.8,366.2h0.4v5h-0.4V366.2z M1064,366.2h0.4v5h-0.4V366.2z
				 M1053.8,366.2h0.1v5h-0.1V366.2z M1060.8,366.2h0.1v5h-0.1V366.2z M1065.8,366.2h0.1v5h-0.1V366.2z M1066.1,366.2h0.1v5h-0.1
				V366.2z M1059.1,366.2h0.1v5h-0.1V366.2z M1063,366.2h0.1v5h-0.1V366.2z M1066.8,366.2h0.1v5h-0.1V366.2z M1063.3,366.2h0.1v5
				h-0.1V366.2z M1062.6,366.2h0.1v5h-0.1V366.2z"/>
			<path class="st25" d="M894.7,186.4c0-0.7-0.7-1.4-1.4-1.4h-15.2c-0.7,0-1.4,0.7-1.4,1.4v5.3c0,0.7,0.7,1.4,1.4,1.4h15.2
				c0.7,0,1.4-0.7,1.4-1.4V186.4L894.7,186.4z"/>
			<path class="st26" d="M878.8,185.7h14.5v0.4h-14.5V185.7z M878.8,187.9h0.1v4.6h-0.1V187.9z M879.5,187.9h0.1v4.6h-0.1V187.9z
				 M880.2,187.9h0.1v4.6h-0.1V187.9z M883,187.9h0.1v4.6H883V187.9z M885.9,187.9h0.1v4.6h-0.1V187.9z M884.1,187.9h0.1v4.6h-0.1
				V187.9z M891.5,187.9h0.1v4.6h-0.1V187.9z M880.9,187.9h0.4v4.6h-0.4V187.9z M882.3,187.9h0.4v4.6h-0.4V187.9z M884.5,187.9h0.4
				v4.6h-0.4V187.9z M888.7,187.9h0.4v4.6h-0.4V187.9z M886.9,187.9h0.4v4.6H887L886.9,187.9z M890.8,187.9h0.3v4.6h-0.4
				L890.8,187.9z M881.6,187.9h0.1v4.6h-0.1V187.9z M888,187.9h0.1v4.6H888V187.9z M892.2,187.9h0.1v4.6h-0.1V187.9z M893,187.9h0.1
				v4.6H893V187.9z M886.2,187.9h0.1v4.6h-0.1V187.9z M890.1,187.9h0.1v4.6h-0.1V187.9z M893.3,187.9h0.1v4.6h-0.1V187.9z
				 M890.5,187.9h0.1v4.6h-0.1V187.9z M889.4,187.9h0.1v4.6h-0.1V187.9z"/>
			<path class="st27" d="M809.2,287.7h-3.9v-20.3l3.9-0.4V287.7z M857.6,204.9l-3.9,1.1v-21.3l3.9-1.4V204.9z"/>
			<path class="st9" d="M1015.6,206h62.6v21.3h-31.5v3.6h-13.8v-3.6h-17.3L1015.6,206L1015.6,206z M1019.1,223.4h7.1v-10.5h3.5v10.7
				h3.5v-13.9h-13.8v13.9h-0.3L1019.1,223.4z M1036.4,209.2V227h6.7v-3.5h7.1v-14.1h-13.8V209.2z M1043.2,212.8h3.5v7.1h-3.5V212.8z
				 M1053.8,209.4v13.9h7.1v-10.7h3.5v10.7h3.5V213h3.5v10.2h3.5v-13.9L1053.8,209.4L1053.8,209.4z M900.4,218.6h62.6V240h-31.5v3.5
				h-13.8V240h-17.3L900.4,218.6L900.4,218.6z M903.9,236.1h7.1v-10.7h3.6v10.7h3.6v-13.9h-13.7v13.9h-0.3H903.9z M921.2,222.2V240
				h6.8v-3.5h7.1v-14.1h-13.7L921.2,222.2z M928.3,225.4h3.6v7.2h-3.5v-7.1L928.3,225.4z M938.5,222.2v13.9h7.1v-10.7h3.6v10.7h3.6
				v-10.2h3.6v10.2h3.6v-13.9h-21.2H938.5z M1073.2,344.5h31.5v10.7h-15.4v1.9h-7.1v-1.7h-8.8v-11L1073.2,344.5z M1075.1,353h3.6
				v-5.2h1.9v5.3h1.7V346h-7.1v7.1H1075.1z M1083.6,346.4v9h3.6v-1.7h3.6v-7.1h-7.1L1083.6,346.4z M1087.2,348.3h1.9v3.5h-1.7v-3.5
				H1087.2z M1092.6,346.5v7.2h3.6v-5.3h1.9v5.3h1.7v-5.3h1.7v5.3h1.7v-7.1h-10.5L1092.6,346.5z M1058.6,288.4h60.1v20.2h-30v3.2
				h-13.4v-3.5h-16.6v-20.4L1058.6,288.4z M1062.3,305.1h6.8v-10.2h3.2v10.4h3.3v-14.3h-13.4v13.5h0.4L1062.3,305.1z M1078.9,291.7
				v16.6h6.8v-3.2h6.8v-13.5l-13.4-0.4L1078.9,291.7z M1085.2,295.3h3.6v6.8h-3.5v-6.8L1085.2,295.3z M1095.5,291.8v13.6h6.8v-10.1
				h3.2v10h3.2v-10h3.3v10h3.2v-14.3h-19.5L1095.5,291.8z M971.7,382.3h60.1v20.2h-30v3.2h-13.5v-3.6h-16.8v-20.4L971.7,382.3z
				 M975.4,399.1h6.8v-10h3.2v10.2h3.2v-13.6h-13v13.3L975.4,399.1z M992,385.6v16.4h6.8v-3.2h6.8v-14.1h-13.4L992,385.6z
				 M998.5,389.3h3.6v6.8h-3.6v-6.9V389.3z M1008.7,385.8v13.4h6.8v-10.1h3.2v10h3.2v-10h3.2v10h3.2v-14.3h-19.5L1008.7,385.8z
				 M1010.9,109.6h51.5V127h-26v2.9h-11.5V127h-14.1V109L1010.9,109.6z M1013.8,123.9h5.6v-8.7h2.7v8.5h2.9v-11.5h-11.4v11.3
				L1013.8,123.9z M1027.9,112.7v14.4h5.6v-2.9h5.6v-12.3h-11.4L1027.9,112.7z M1033.5,115.4h2.7v6.1h-2.7V115.4z M1042.3,112.7
				v11.3h5.6v-8.5h2.9v8.5h2.7v-8.5h2.9v8.5h2.7v-11.4h-17L1042.3,112.7z M915.4,135h37.1v12.4h-18.8v2.2h-8.2v-2.9h-10.2v-12.4
				L915.4,135z M917.6,145.3h4.2v-7.2h2.2v6.4h2.2v-8.2H918v8.2h-0.3L917.6,145.3z M927.9,137.1v10.2h4.2v-2.2h4.3v-8.7h-8.5V137.1z
				 M931.8,139.1h2v4.3h-2V139.1z M938.1,136.9v8.2h4.2v-7.2h2.2v6.4h2.2v-6.1h2.2v6.1h2.2V136h-12.7L938.1,136.9z"/>
			<path class="st28" d="M503.4,209.1c-38.2,3.9-45.1,51.3-44,53.1c30.2,39.5,83,29.8,96.5,2c0,0,6.8-15-9.5-21.8
				c-6.4-2.4-9.8-34.5-43.2-33.3H503.4z"/>
			<path class="st29" d="M536.1,241c0.9,1.5,0.6,3.5-0.9,4.4c-1.4,0.9-3.2,0.3-4-1.2c-0.8-1.5-0.6-3.6,0.9-4.4
				C533.5,238.9,535.3,239.5,536.1,241"/>
			<path class="st30" d="M533.3,240.7c0.9-0.6,2.3-0.3,2.9,0.9c0.5,1.2,0.3,2.6-0.6,3.2c-0.9,0.6-2.3,0.3-2.9-0.9
				c-0.6-1.3-0.3-2.7,0.6-3.3"/>
			<path class="st31" d="M534.7,242.1c0.3-0.3,0.9,0,0.9,0.3c0.3,0.3,0,0.9-0.3,1.2c-0.3,0.3-0.9,0-0.9-0.3
				C534.2,242.7,534.5,242.4,534.7,242.1"/>
			<path class="st32" d="M498.5,202l7.2,7.7c-0.4,2.8-2.3,5.3-4.9,6.5c-3.5,1.8-5.7,0.6-8.3-1.5C492.5,214.4,493,206,498.5,202"/>
			<path class="st28" d="M503.7,211.2l1.2-1.2l-6.1-6.5l-2.9,7.1c1.4,0.6,5.9,1.8,7.7,0.6"/>
			<path class="st32" d="M549.6,246.3c-7.7,1.8-8.3,2.9-6.6,8.3c1.2,3.5,15.2,10.9,13.8,5.9C556.8,260.4,552.5,252.8,549.6,246.3"/>
			<path class="st30" d="M541.9,251.3c-0.3,3.8,7.8,10,14.1,9.1h0.6c5.6-4.1,4.8-13.6-1.7-15.9C548.2,242.1,542.1,247.2,541.9,251.3
				"/>
			<path class="st32" d="M534.7,273.1c0.9,0.6,7.2,4.7,11.5,3.5c-1.4,1.5-4.3,3.2-4.3,3.2s-2.3,0.3-4.6-2.1
				C535.3,276.4,534.7,273.1,534.7,273.1L534.7,273.1z"/>
			<path class="st33" d="M494.2,278.1l-3.2-0.3c-1.2,0.3-19.2,4.1-27,26.6c-2.6,7.4-3.2,13.3-2.3,17.4c0.3,1.5,0.9,2.7,1.4,3.8
				c2.9,5.9,38.2,14.1,32.2,13.3c-21.3-3.6,20.7,22.4,33.6,12.4c39.7-30.7-9.5-83.2-25-53.7"/>
			<text transform="matrix(1 0 0 1 482.8669 316.6601)" class="st34 st86">B58463</text>
			<path class="st36" d="M459.7,322.1c0,0,73.8-12.1,83.6-6.2c0,0-3.4-21.2-16.1-29.2c0,0-40.9-2.7-45.5-14.8
				C481.5,271.6,463,279,459.7,322.1L459.7,322.1z"/>
			<path class="st28" d="M462,322.4c-1.2,10.3-0.9,24.5,44.3,27.1c0,0,3.2,1.8,2.3,6.5c-0.9,4.7,31.9,1.8,20.4-20.6
				C515.7,309.1,459.7,318.8,462,322.4L462,322.4z"/>
			<path class="st37" d="M516.3,364.6c-1.4,0.9-3.4-2.4-5.5-5.6c-2-3.2-3.7-5.9-2.6-6.5c1.4-0.9,5.2,1.2,7.2,4.7
				C517.5,360.4,517.5,364,516.3,364.6"/>
			<path class="st38" d="M481.5,271.6c9.2,6.8,41.7,14.4,41.7,14.4s3.8-0.6,5.5,2.1c0,0-10.9,0-12.1,2.4c-31-8.5-15.8-5.8-40.2-15
				c0,0,4.3-4.6,5.2-3.8L481.5,271.6z"/>
			<path class="st39" d="M460.5,313.8c1.2-0.3,2.3,0,3.8-0.3c1.7-0.3,4-0.6,5.5,0c-3.2,1.2-6.9,0.9-9.5,3.2c0.3-0.7,0.3-1.3,0.3-2.2
				"/>
			<path class="st40" d="M464.9,320.6c0,0,1.4,14.7,9.2,15.9c0,0,27.9-8.5,34.2,15.6c0,0-17.5-7.9-26.7-7.4c-8.9,1-22.7-7.9-19.5-23
				L464.9,320.6L464.9,320.6z"/>
			<g id="arm_21_-Clipped_1_" transform="translate(742.6 336.95)">
				<defs>
					<filter id="Adobe_OpacityMaskFilter_7_" filterUnits="userSpaceOnUse" x="-248.1" y="-43" width="63.2" height="33.1">
						<feColorMatrix  type="matrix" values="1 0 0 0 0  0 1 0 0 0  0 0 1 0 0  0 0 0 1 0"/>
					</filter>
				</defs>
				<mask maskUnits="userSpaceOnUse" x="-248.1" y="-43" width="63.2" height="33.1" id="mask-20_3_">
					<g class="st87">
						<path id="path-19_3_" class="st31" d="M-1306.4,325.1c0,0,18.1-3.7,30.1-2.7c-1.2,11.9-14.3,20.1-16.3,20.9
							c-6,2.2-8.8,3.4-20.7-1.9C-1331.9,333.2-1306.4,325.1-1306.4,325.1z"/>
					</g>
				</mask>
				<path id="arm_1_" class="st88" d="M-228.3-14c0,0,26.1,5.3,43.4,3.8c-1.7-17.2-20.7-29-23.6-30.2c-8.6-3.2-12.6-5-29.9,2.7
					C-265.1-25.8-228.3-14-228.3-14z"/>
			</g>
			<path class="st32" d="M496.2,305.6c2,7.4,18.4,13.9,18.4,13.9s25.3,7.4,42.8,7.4c-17.2,2.1-43.4-2.6-43.4-2.6
				S485.3,316.2,496.2,305.6L496.2,305.6z"/>
			<g id="Clipped_6_" transform="translate(741.63 333.9)">
				<defs>
					<filter id="Adobe_OpacityMaskFilter_8_" filterUnits="userSpaceOnUse" x="-248" y="-46.3" width="35.4" height="28.4">
						<feColorMatrix  type="matrix" values="1 0 0 0 0  0 1 0 0 0  0 0 1 0 0  0 0 0 1 0"/>
					</filter>
				</defs>
				<mask maskUnits="userSpaceOnUse" x="-248" y="-46.3" width="35.4" height="28.4" id="mask-22_3_">
					<g class="st89">
						<path id="path-21_3_" class="st31" d="M-577.2-143.8c0.2-0.4,1.6-2.1,1.6-2.1c12.7-0.8,21.7,14.6,21.7,14.6l-2.6,3
							C-562.5-139.1-577.2-143.8-577.2-143.8"/>
					</g>
				</mask>
				<path class="st90" d="M-218.1-46.3l5.5,8.3c0,0-14.7,20.9-33.1,20.1c0,0-2-2.7-2.3-3C-248-21.2-226.8-30.4-218.1-46.3"/>
			</g>
			<g id="Clipped_8_" transform="translate(741.63 333.9)">
				<defs>
					<filter id="Adobe_OpacityMaskFilter_9_" filterUnits="userSpaceOnUse" x="-248.8" y="-25" width="12.3" height="7.6">
						<feColorMatrix  type="matrix" values="1 0 0 0 0  0 1 0 0 0  0 0 1 0 0  0 0 0 1 0"/>
					</filter>
				</defs>
				<mask maskUnits="userSpaceOnUse" x="-248.8" y="-25" width="12.3" height="7.6" id="mask-24_3_">
					<g class="st91">
						<path id="path-23_3_" class="st31" d="M-577.2-143.8c0.2-0.4,1.6-2.1,1.6-2.1c12.7-0.8,21.7,14.6,21.7,14.6l-2.6,3
							C-562.5-139.1-577.2-143.8-577.2-143.8"/>
					</g>
				</mask>
				<g class="st92">
					<g id="Clipped_7_" transform="translate(-.4 13.28)">
						<defs>
							<filter id="Adobe_OpacityMaskFilter_10_" filterUnits="userSpaceOnUse" x="-248.4" y="-38.3" width="12.3" height="7.6">
								<feColorMatrix  type="matrix" values="1 0 0 0 0  0 1 0 0 0  0 0 1 0 0  0 0 0 1 0"/>
							</filter>
						</defs>
						<mask maskUnits="userSpaceOnUse" x="-248.4" y="-38.3" width="12.3" height="7.6" id="mask-26_3_">
							<g class="st93">
								<path id="path-25_3_" class="st31" d="M-577.3-154.4h8.4v-5.3h-8.4L-577.3-154.4z"/>
							</g>
						</mask>
						<path class="st94" d="M-236.1-32.2c0,0-4-3.8-4.6-5.6c-0.6-1.8-7.1,1.2-7.1,1.2l-0.6,1.8l1.7,4.1L-236.1-32.2L-236.1-32.2z"/>
					</g>
				</g>
			</g>
			<g id="Clipped_9_" transform="translate(737.25 323.67)">
				<defs>
					<filter id="Adobe_OpacityMaskFilter_11_" filterUnits="userSpaceOnUse" x="-250.9" y="-48.7" width="40.7" height="39.5">
						<feColorMatrix  type="matrix" values="1 0 0 0 0  0 1 0 0 0  0 0 1 0 0  0 0 0 1 0"/>
					</filter>
				</defs>
				<mask maskUnits="userSpaceOnUse" x="-250.9" y="-48.7" width="40.7" height="39.5" id="mask-28_3_">
					<g class="st95">
						<path id="path-27_3_" class="st31" d="M-572-109.4c-11.3-7.3-1.4-24.1-1-24.5c0.2-0.2,0.6-0.2,0.6-0.2
							c12.7,0.2,21.3,14.9,21.3,14.9c0.2,0.2,0.2,0.4,0.2,0.6c0,0.2-7.8,11.2-16.3,10.8C-568.8-108-570.4-108.4-572-109.4"/>
					</g>
				</mask>
				<path class="st96" d="M-210.3-28.7c0,0-13.5,19.2-31.9,19.5c0,0-1.7,0.3-2,0c-0.6-0.3-15.8-25.7,1.7-36.6
					c17.5-11.2,31.9,14.4,31.9,14.4S-210-29-210.3-28.7"/>
			</g>
			<g id="Clipped_11_" transform="translate(737.25 323.67)">
				<defs>
					<filter id="Adobe_OpacityMaskFilter_12_" filterUnits="userSpaceOnUse" x="-258" y="-37.2" width="25.3" height="29.4">
						<feColorMatrix  type="matrix" values="1 0 0 0 0  0 1 0 0 0  0 0 1 0 0  0 0 0 1 0"/>
					</filter>
				</defs>
				<mask maskUnits="userSpaceOnUse" x="-258" y="-37.2" width="25.3" height="29.4" id="mask-30_3_">
					<g class="st97">
						<path id="path-29_3_" class="st31" d="M-572-109.4c-11.3-7.3-1.4-24.1-1-24.5c0.2-0.2,0.6-0.2,0.6-0.2
							c12.7,0.2,21.3,14.9,21.3,14.9c0.2,0.2,0.2,0.4,0.2,0.6c0,0.2-7.8,11.2-16.3,10.8C-568.8-108-570.4-108.4-572-109.4"/>
					</g>
				</mask>
				<g class="st98">
					<g id="Clipped_10_" transform="translate(-5.97 7.15)">
						<defs>
							<filter id="Adobe_OpacityMaskFilter_13_" filterUnits="userSpaceOnUse" x="-252" y="-44.3" width="25.3" height="29.4">
								<feColorMatrix  type="matrix" values="1 0 0 0 0  0 1 0 0 0  0 0 1 0 0  0 0 0 1 0"/>
							</filter>
						</defs>
						<mask maskUnits="userSpaceOnUse" x="-252" y="-44.3" width="25.3" height="29.4" id="mask-32_3_">
							<g transform="scale(0.90) translate(60 -20)" class="st99">
								<path id="path-31_3_" class="st31" d="M-576.8-122.4h16.9v-20.8h-16.9V-122.4z"/>
							</g>
						</mask>
						<path class="st100" d="M-226.7-17.3c0,0-15.3-12.1-17.3-23.3c-2-10.9-8,5.6-8,5.6l9.8,14.4l5.7,5.6L-226.7-17.3L-226.7-17.3z"
							/>
					</g>
				</g>
			</g>
			<path class="st55" d="M527.5,286.7c1.7,0.6,5.4,5.3,5.7,5.6l-4,1.8l-3.1-5.6l-3.5-0.9C522.6,287.6,525.8,286.1,527.5,286.7
				L527.5,286.7z"/>
			<path class="st56" d="M530.7,289.6c0,0.3,0,0.9-0.6,0.9c-0.3,0-0.9,0-0.9-0.6c0-0.3,0-0.9,0.6-0.9
				C530.1,289,530.7,289,530.7,289.6"/>
			<path class="st57" d="M660.5,317.9h105.7v65.2H660.5V317.9z"/>
			<path class="st58" d="M660.5,383.4h105.7v3.2H660.5V383.4z"/>
			<path class="st59" d="M660.5,315h105.7v3.2H660.5V315z"/>
			<path class="st59" d="M663.7,383.4l-3.2,3.2V315h3.2V383.4z"/>
			<path class="st58" d="M762.5,383.4l3.5,3.2V315l-3.5,2.9V383.4z"/>
			<path class="st57" d="M660.5,246.3h105.7v65.2H660.5V246.3z"/>
			<path class="st58" d="M660.5,311.7h105.7v3.3H660.5V311.7z"/>
			<path class="st59" d="M660.5,243.3h105.7v3.3H660.5V243.3z"/>
			<path class="st59" d="M663.7,311.8l-3.2,3.2v-71.7h3.2V311.8z"/>
			<path class="st58" d="M762.5,311.8l3.5,3.2v-71.7l-3.5,3V311.8z"/>
			<path class="st57" d="M660.5,174.6h105.7v65.2H660.5V174.6z"/>
			<path class="st58" d="M660.5,240.1h105.7v3.2H660.5V240.1z"/>
			<path class="st59" d="M660.5,171.3h105.7v3.2H660.5V171.3z"/>
			<path class="st59" d="M663.7,240.1l-3.2,3.2v-71.9h3.2V240.1z"/>
			<path class="st58" d="M762.5,240.1l3.5,3.2v-71.9l-3.5,3.3V240.1z"/>
			<path class="st60" d="M613.4,172.2h28.4v221.2h-28.4V172.2z"/>
			<path class="st61" d="M627.5,261.6h8.6v21.2h-8.5L627.5,261.6z M627.5,224.1h8.6v13.6h-8.5L627.5,224.1z M627.5,184.3h8.6v13.6
				h-8.5L627.5,184.3z"/>
			<path class="st62" d="M613.4,197.9h7.2v195.6h-7.2V197.9z"/>
			<path class="st60" d="M641.9,386.7h131.6v6.8H641.9V386.7z"/>
			<path class="st63" d="M396.8,345.7h72.4v59.6h-72.4V345.7z"/>
			<path class="st64" d="M469.2,345.7h87.6v59.6h-87.6v-30.7l-38.8-9v-20.1L469.2,345.7z M385.3,342.1v-47.2h39.6v70.2l-25.9,8.3
				v31.9L377,394v-48.4L385.3,342.1z"/>
			<path class="st65" d="M556.8,405.3l52.3-13v-55.8h-52.3V405.3z"/>
			<path class="st64" d="M556.8,345.7l73.5-6.2l-14.1-10.3h-62.6l-15.5,16.5L556.8,345.7z"/>
			<ellipse class="st66" cx="608" cy="391.1" rx="37.6" ry="38.6"/>
			
				<linearGradient id="SVGID_35_" gradientUnits="userSpaceOnUse" x1="-577.051" y1="681.2393" x2="-577.051" y2="682.243" gradientTransform="matrix(50.5552 0 0 -51.9122 29780.8789 35781.875)">
				<stop  offset="0" style="stop-color:#4A4A4A"/>
				<stop  offset="1" style="stop-color:#29282A"/>
			</linearGradient>
			<ellipse class="st101" cx="608" cy="391.1" rx="25.3" ry="26"/>
			<ellipse class="st66" cx="608" cy="391.1" rx="16.4" ry="16.8"/>
			<ellipse class="st68" cx="608" cy="391.1" rx="11.2" ry="11.5"/>
			<ellipse class="st66" cx="433" cy="399.7" rx="29.6" ry="30.4"/>
			
				<linearGradient id="SVGID_36_" gradientUnits="userSpaceOnUse" x1="-577.051" y1="681.243" x2="-577.051" y2="682.243" gradientTransform="matrix(39.6415 0 0 -40.7098 23308.1445 28153.2598)">
				<stop  offset="0" style="stop-color:#4A4A4A"/>
				<stop  offset="1" style="stop-color:#29282A"/>
			</linearGradient>
			<ellipse class="st102" cx="433" cy="399.7" rx="19.8" ry="20.4"/>
			<ellipse class="st66" cx="433" cy="399.7" rx="12.6" ry="13"/>
			<ellipse class="st68" cx="433" cy="399.7" rx="8.9" ry="9.1"/>
			<path class="st60" d="M579.2,305l-41.1-132.7h9.5l44,132.1l14.1,24.8H570L579.2,305z M448.8,161.3h98.8v10.9h-98.8L448.8,161.3z
				 M538.1,345.7H425v-50.7l23.8-122.7h11.8l13.6,117.1L538.1,345.7z"/>
			<path class="st9" d="M682.4,272.2h54.3v18.6h-27v3h-12.1v-2.9h-14.9l-0.3-18.5L682.4,272.2z M685.3,287.9h6v-9.4h2.9v9.4h2.9
				v-12.4h-12L685.3,287.9L685.3,287.9z M700.2,275.4v15.6h6v-3.2h6v-12.4L700.2,275.4L700.2,275.4z M706.2,278.4h3.2v6.5h-3.2
				V278.4z M715.4,275.5v12.4h6v-9.2h2.9v9.2h2.9v-9.2h2.9v9.2h2.9v-12.4L715.4,275.5L715.4,275.5z M682.4,202.6h54.3v18.6h-27v2.9
				h-12.1v-3h-14.9l-0.3-18.6L682.4,202.6z M685.3,217.9h6v-9.4h2.9v9.4h2.9v-12.4h-12L685.3,217.9L685.3,217.9z M700.2,205.6v15.6
				h6v-3.3h6v-12.4h-12.1V205.6z M706.2,208.8h3.2v6.5h-3.2V208.8z M715.4,205.6V218h6V209h2.9v9.2h2.9v-9.1h2.9v9.2h2.9v-12.6
				h-17.6V205.6z M682.4,341.9h54.3v18.6h-27v3h-12.1v-2.9h-14.9l-0.3-18.5L682.4,341.9z M685.3,357.5h6v-9.4h2.9v9.5h2.9v-12.4h-12
				l0.3,12.4L685.3,357.5z M700.2,345.1v15.7h6v-3.2h6v-12.4h-12.1V345.1z M706.2,348.1h3.2v6.5h-3.2V348.1z M715.4,345.2v12.4h6
				v-9.1h2.9v9.2h2.9v-9.1h2.9v9.2h2.9v-12.4h-17.6V345.2z"/>
		</g>
	</g>
</g>
</svg>
