<svg fill="#AABDC9" xmlns="http://www.w3.org/2000/svg" xmlns:xlink="http://www.w3.org/1999/xlink" viewBox="0 0 100 100" version="1.1" x="0px" y="0px"><title>Search v1.3</title><desc>Created with Sketch.</desc><g stroke="none" stroke-width="1" fill="none" fill-rule="evenodd"><g fill-rule="nonzero" fill="#AABDC9"><path d="M68,66 L66,68 L55.6377117,57.759032 C53.1438966,59.7854675 49.963783,61 46.5,61 C38.4918711,61 32,54.5081289 32,46.5 C32,38.4918711 38.4918711,32 46.5,32 C54.5081289,32 61,38.4918711 61,46.5 C61,49.963783 59.7854675,53.1438966 57.759032,55.6377117 L68,66 Z M46.5,58 C52.8512746,58 58,52.8512746 58,46.5 C58,40.1487254 52.8512746,35 46.5,35 C40.1487254,35 35,40.1487254 35,46.5 C35,52.8512746 40.1487254,58 46.5,58 Z"></path></g></g></svg>